<svg width="16" height="16" viewBox="0 0 16 16" fill="none" xmlns="http://www.w3.org/2000/svg">
<g clip-path="url(#clip0_243_43)">
<rect width="16" height="16" fill="black"/>
<path d="M9.41131 12.3608C8.64443 12.8489 7.57081 13.746 9.41131 14.1284C11.2518 14.5108 9.05496 16.6432 8.28809 17.1212" stroke="#7FAF25" stroke-width="0.707149"/>
<path d="M9.90581 6.4176L11.1061 8.30793L10.5132 8.57287L9.90581 6.4176Z" fill="#D9D9D9"/>
<path d="M10.7092 5.70191L11.7498 7.68465L11.1371 7.89987L10.7092 5.70191Z" fill="#D9D9D9"/>
<path d="M11.887 5.04162L12.6446 7.14879L12.0081 7.27756L11.887 5.04162Z" fill="#D9D9D9"/>
<path d="M13.04 4.34452L13.3529 6.56175L12.7035 6.55831L13.04 4.34452Z" fill="#D9D9D9"/>
<path d="M6.64333 7.28722L7.03647 9.49165L6.38735 9.51175L6.64333 7.28722Z" fill="#D9D9D9"/>
<path d="M5.79079 6.71129L6.18393 8.91572L5.53481 8.93583L5.79079 6.71129Z" fill="#D9D9D9"/>
<path d="M5.03102 6.06603L5.42417 8.27046L4.77504 8.29056L5.03102 6.06603Z" fill="#D9D9D9"/>
<path d="M4.06423 5.35192L4.45737 7.55635L3.80824 7.57645L4.06423 5.35192Z" fill="#D9D9D9"/>
<path d="M2.95778 4.82213L3.35093 7.02656L2.7018 7.04666L2.95778 4.82213Z" fill="#D9D9D9"/>
<path d="M8.67562 10.9037C8.85412 9.90092 12.1657 6.4449 13.9165 5.73193C13.9165 9.41174 11.4895 11.6656 10.276 12.3326C3.27695 12.581 2.68609 8.80733 2.06738 6.4449C3.94159 6.4449 7.09418 9.63873 8.67562 10.9037Z" fill="#FD2927"/>
<path d="M8.67578 12.159C11.3595 12.159 14.1355 8.35791 13.8596 5.59351C14.4018 8.37468 13.125 13.8671 7.75502 13.1849C3.45906 12.6391 2.16351 8.3397 2.05273 6.25819C2.46739 9.47518 5.35236 12.159 8.67578 12.159Z" fill="#7FAF25"/>
<mask id="mask0_243_43" style="mask-type:luminance" maskUnits="userSpaceOnUse" x="5" y="4" width="6" height="8">
<path d="M7.12107 5.02941C7.12107 5.02941 6.47861 5.36121 7.30422 6.16165C7.30422 6.16165 7.6282 6.45409 7.73315 6.49193L8.99658 7.27052C8.99658 7.27052 11.0076 8.42537 9.4877 10.1665L9.43556 10.226C9.43556 10.226 8.6136 12.5957 6.77711 10.6362C6.77711 10.6362 6.43103 9.63576 6.88877 8.88472C6.88877 8.88472 5.21496 7.3068 5.39422 6.07833C5.39422 6.07833 5.7618 4.45278 7.23571 5.02887L7.12107 5.02941Z" fill="white"/>
</mask>
<g mask="url(#mask0_243_43)">
<rect x="17.5469" y="7.78491" width="10.8471" height="12.9529" transform="rotate(117.774 17.5469 7.78491)" fill="#830705"/>
</g>
<mask id="mask1_243_43" style="mask-type:luminance" maskUnits="userSpaceOnUse" x="5" y="5" width="6" height="6">
<path d="M7.08477 5.05465C7.08477 5.05465 6.47032 5.61387 7.59788 6.31598C7.59788 6.31598 8.34089 6.67033 8.53471 6.75537C8.53471 6.75537 10.7793 7.38954 9.72258 9.52231C9.72258 9.52231 9.67657 8.62908 8.76248 7.95933C8.76248 7.95933 6.4106 6.61485 6.55575 6.32513L6.59752 6.21199C6.59752 6.21199 6.32002 6.38517 7.92278 7.62202C7.92278 7.62202 9.7756 8.62972 9.54555 9.85181C9.54555 9.85181 9.44239 10.8544 8.79567 10.9682C8.79567 10.9682 8.96199 9.86856 6.75054 8.24976C6.75054 8.24976 5.06839 6.66337 6.63575 5.16956C6.63575 5.16956 6.85287 4.99878 7.20048 5.00999L7.08466 5.05442L7.08477 5.05465Z" fill="white"/>
</mask>
<g mask="url(#mask1_243_43)">
<rect width="11.3193" height="11.9092" transform="matrix(-0.349298 0.937012 -0.943618 -0.331037 17.0967 5.88208)" fill="#C50705"/>
</g>
<path d="M2.36766 5.35706L3.121 7.46574L2.4842 7.59323L2.36766 5.35706Z" fill="#D9D9D9"/>
<path d="M3.417 6.33419L3.58535 8.56706L2.93752 8.52146L3.417 6.33419Z" fill="#D9D9D9"/>
<path d="M3.94727 7.25582L4.11563 9.48869L3.46779 9.44309L3.94727 7.25582Z" fill="#D9D9D9"/>
<path d="M4.68457 8.12911L4.85293 10.362L4.2051 10.3164L4.68457 8.12911Z" fill="#D9D9D9"/>
<path d="M5.72071 8.77437L5.88907 11.0072L5.24123 10.9616L5.72071 8.77437Z" fill="#D9D9D9"/>
<path d="M13.568 4.96134L13.7104 7.19601L13.0632 7.14289L13.568 4.96134Z" fill="#D9D9D9"/>
<path d="M12.9148 6.08092L13.308 8.28535L12.6588 8.30545L12.9148 6.08092Z" fill="#D9D9D9"/>
<path d="M12.3562 7.07946L12.7494 9.28389L12.1002 9.30399L12.3562 7.07946Z" fill="#D9D9D9"/>
<path d="M11.7351 8.02233L12.1283 10.2268L11.4791 10.2469L11.7351 8.02233Z" fill="#D9D9D9"/>
<path d="M11.0437 8.78283L11.4369 10.9873L10.7877 11.0074L11.0437 8.78283Z" fill="#D9D9D9"/>
<path d="M10.1912 9.26623L10.5843 11.4707L9.9352 11.4908L10.1912 9.26623Z" fill="#D9D9D9"/>
<path d="M8.24594 11.4408C7.62255 11.1915 7.34752 10.1421 7.26501 9.68066L6.68355 9.19727L6.42161 9.24062L6.14658 9.43313L6.07324 10.6341L7.81506 11.6058L8.24594 11.4408Z" fill="#FD2927"/>
<path d="M8.05371 11.0923L8.37457 11.7432" stroke="#830705" stroke-width="0.0916748"/>
<path d="M7.27384 9.21294L6.49892 8.47144L6.26855 8.5751L6.42981 8.96672L7.20967 9.66215C7.39302 9.66215 7.41502 9.61264 7.39302 9.52464C7.37102 9.43663 7.32579 9.28017 7.27384 9.21294Z" fill="black"/>
<path d="M6.42969 8.9785L6.42969 8.40259L6.77524 8.73662L6.97105 9.45076L6.7522 9.25494L6.42969 8.9785Z" fill="#D9D9D9"/>
<path d="M6.66602 9.30416L6.83438 11.537L6.18654 11.4914L6.66602 9.30416Z" fill="#D9D9D9"/>
</g>
<defs>
<clipPath id="clip0_243_43">
<rect width="16" height="16" fill="white"/>
</clipPath>
</defs>
</svg>
