<svg width="1440" height="553" viewBox="0 0 1440 553" fill="none" xmlns="http://www.w3.org/2000/svg">
<path d="M214.508 57.5427L-29.0317 0L-55.1875 394.08L41.8795 487.079L746.342 442.905H1118.34L1445.57 367.925L1499.05 163.91L1445.57 119.735L1118.34 194.715L692.868 92.9983L409.804 22.0871L214.508 57.5427Z" fill="url(#paint0_linear_108_6)"/>
<path d="M102.328 247.027L-61 331.307L31.9983 552.759L802.141 521.953L1466.5 442.324V198.784L1275.85 247.027H988.137L687.055 198.784L385.973 247.027H102.328Z" fill="url(#paint1_linear_108_6)"/>
<path d="M1466 431H-21V553H1466V431Z" fill="url(#paint2_linear_108_6)"/>
<g clip-path="url(#clip0_108_6)">
<path d="M541.745 422.561L540.582 417.911L544.069 402.218L547.557 387.106L551.626 368.506L552.788 356.881L555.113 353.975H561.507H569.644L573.713 356.881L575.456 362.112L573.713 373.737L569.644 390.593L564.413 405.124L558.6 417.911L552.788 424.305H547.557L541.745 422.561Z" fill="black"/>
<path d="M77.3344 464.992L66.2909 439.417L61.0597 441.161L58.1535 445.811L57.5723 453.948L61.0597 462.667L66.2909 466.735H70.3595L77.3344 464.992Z" fill="#FD2927"/>
<path d="M532.753 444.233L535.489 437.59L537.13 435.93H540.959L544.788 437.59L546.977 440.912L545.883 447.554L542.053 454.751L538.224 459.179H532.753L528.377 456.965L529.471 453.09L532.753 444.233Z" fill="#FD2927"/>
<path d="M523.146 330.725L358.074 333.05V254.583H373.186V288.295V306.895L374.93 316.194L383.649 319.101H403.411H428.985H499.315L501.059 313.869L497.572 295.851L492.922 280.158L484.784 258.652H497.572L505.128 277.833L512.103 293.526L518.496 306.895L524.89 313.869L530.121 319.101H538.258L541.746 328.982L523.146 330.725Z" fill="#B0DA3E"/>
<path d="M492.921 239.471L498.733 259.233H485.365L483.621 256.327L477.227 242.377L470.834 228.427L466.765 221.452L456.884 219.127L448.165 217.965H438.284H426.078H417.359H406.316L394.11 219.127H384.229L378.416 221.452L376.091 228.427L374.929 239.471L373.767 254.583H358.654V249.933L359.817 232.496L361.56 219.127L362.723 210.99L364.467 208.665H373.767H388.879L409.222 209.828H428.984H456.884L492.921 208.665L496.989 210.99V216.221L492.921 221.452L490.596 226.683L492.921 239.471Z" fill="#B0DA3E"/>
<path d="M37.2285 328.982L38.391 339.444L159.289 336.538L270.306 335.375L357.491 333.05L361.56 220.871L363.304 210.409L365.629 208.665H394.11L425.497 210.409H458.627H474.321L488.852 208.665L492.339 206.34L485.945 201.69L469.671 197.621L394.11 191.228H378.997H374.347V194.134L372.022 198.784H366.791H360.398L355.167 197.621L353.423 194.134L352.26 189.484H251.706H230.781H212.763H209.275V192.39L211.6 194.134L210.438 197.621L205.207 198.784H200.557L194.744 196.459L193.001 192.39L194.744 189.484H188.932L171.495 190.647H154.639L130.808 192.39L110.465 194.134L95.3525 196.459L73.2654 201.69L62.2218 214.477L51.1783 242.377L45.9471 260.395L40.1347 290.62L38.391 309.801L37.2285 328.982Z" fill="#B0DA3E"/>
<path d="M66.0329 396.898L48.209 382.446L53.0263 399.788L60.2522 420.503L69.8867 443.144L77.5943 465.785L128.657 463.376V457.114V447.961L130.103 438.326L132.993 429.174L136.847 421.948L141.182 418.094H213.923L219.704 423.393L223.558 438.326L226.93 463.376L232.229 467.23L364.703 469.157L360.85 420.503L452.378 418.094L454.786 421.948L460.567 438.326L470.202 464.34L488.026 461.449L509.703 457.595H527.527L530.418 449.406L537.162 429.655L541.979 410.868L546.314 394.489L548.723 381.001L546.314 384.373H541.979V378.111L540.534 371.366L537.162 368.958L535.235 371.366L532.826 376.184V384.373L530.418 382.928L525.406 381.001L522.71 384.373L525.406 390.635L527.527 394.489L526.082 396.898L517.411 404.124L518.856 408.941H526.082L522.71 412.795L518.856 418.094L509.703 423.393L501.996 424.838L493.325 423.393L484.653 420.503L476.946 415.204L470.202 410.868L460.567 402.679L452.378 396.898L445.634 390.635L435.036 386.3L426.365 384.373H408.059L398.906 386.3L390.235 388.227L382.527 392.081L376.265 394.489L367.112 402.679L358.923 410.868L356.514 404.124L352.179 396.898L347.361 392.081L343.508 390.635L341.581 394.489L343.508 402.679L348.325 408.941L350.733 415.204H348.325L338.209 412.795H329.537L327.611 415.204L330.501 418.094L338.209 420.503L345.434 421.948V423.393L336.763 432.546L330.501 438.326L320.866 444.107L312.195 447.961H297.743L288.109 446.516L279.92 443.144L269.803 438.326L261.132 432.546L252.461 426.283L244.754 417.13L232.229 404.124L225.003 396.898L218.259 388.227L210.551 382.446L206.215 380.037L203.807 382.446L210.551 388.227L216.332 394.489L218.259 399.788L215.85 402.679H210.551L203.807 396.898L196.099 386.782L194.654 390.635L192.245 399.788L187.91 407.014L183.092 410.868L178.757 408.941L176.83 399.788L181.166 388.227L183.092 382.446H181.166L176.83 385.818L167.677 388.227H162.86L158.524 385.818V382.446L160.933 377.629L164.787 373.775L150.817 375.702L134.92 380.037L119.986 385.818L106.498 393.044L88.1923 408.941L94.4548 399.788L98.3086 388.227L100.235 380.037L98.3086 377.629L92.5279 382.446L85.3019 388.227L80.003 396.898L77.5943 399.788L80.003 373.775L77.5943 370.885H75.1857L69.8867 380.037L66.0329 396.898Z" fill="#B0DA3E"/>
<path d="M531.283 415.005V410.355L533.608 401.055L535.933 396.987L537.677 392.918L539.421 391.755L540.583 394.08V398.149L539.421 403.961L537.677 409.193L535.933 412.68L533.608 415.005H531.283Z" fill="#B0DA3E"/>
<path d="M526.634 428.374L527.796 426.049H530.703L531.865 428.374V431.28L530.121 433.023H527.796L526.053 430.699L526.634 428.374Z" fill="#FD2927"/>
<path d="M531.603 424.809C534.671 426.348 534.101 434.164 529.787 434.711C522.236 435.676 523.821 420.901 531.603 424.809ZM528.716 427.403C527.255 427.854 527.436 432.078 529.832 431.339C531.293 430.888 531.112 426.664 528.716 427.403Z" fill="black"/>
<path d="M537.763 411.93C536.223 414.31 534.441 418.618 530.674 416.402C527.9 414.772 531.21 402.214 532.265 399.371C533.319 396.529 535.936 390.574 539.393 390.146C545.957 390.67 539.72 408.682 537.763 411.924V411.93ZM532.377 413.864C533.533 414.107 533.686 413.289 534.176 412.567C536.618 408.947 539.319 399.727 539.573 395.356C539.635 394.336 539.906 393.727 538.857 393.005C535.141 399.276 532.547 406.511 532.377 413.864Z" fill="black"/>
<path d="M172.495 362.695L177.794 370.403L173.941 372.811L168.16 374.256L163.824 376.183L160.452 378.11L158.525 382.927L160.452 387.263L166.233 389.19L173.941 387.263L182.612 382.927V385.336L180.203 389.19L179.24 394.007L176.831 402.197L177.794 406.532L180.203 409.904L185.502 407.977L188.874 403.16L193.691 396.898L195.618 389.19L197.545 387.745L199.472 391.599L203.326 396.898L209.107 402.197L212.961 403.16L217.778 402.197V398.343L216.333 393.044L211.997 389.19L206.698 385.336L203.326 381.001L213.924 376.183L219.705 372.811L225.004 368.476L225.967 363.658L225.004 361.25L221.15 359.805L213.924 361.25L209.107 363.658L203.326 365.585L205.735 356.432L206.698 351.615L205.735 345.353L203.326 342.462H199.472L194.655 345.353L192.728 349.207L191.765 356.432L190.319 361.25L188.874 359.805L184.057 353.542L179.24 349.207L173.459 345.353L169.123 344.389L168.16 346.798V352.579L172.495 362.695Z" fill="#FD2927"/>
<path d="M152.745 430.137L144.555 438.809L139.738 446.034L135.402 453.26V461.45V470.603L139.738 482.164L144.555 490.835L149.372 495.652L155.153 499.506L164.306 503.36L174.422 506.25L192.246 503.36L198.99 499.506L209.107 490.835L215.851 479.755L218.259 468.676V458.559L213.924 446.034L206.216 434.955L198.99 430.137L183.093 423.393H174.422H168.16L159.97 426.284L152.745 430.137Z" fill="black"/>
<path d="M142.94 437.78C177.74 393.552 248.055 447.124 209.235 492.514C173.962 533.753 108.479 481.574 142.94 437.78ZM203.939 434.966C183.137 416.548 149.471 423.772 139.455 449.803C128.014 479.561 153.469 508.946 184.467 503.273C216.599 497.397 228.459 456.677 203.934 434.96L203.939 434.966Z" fill="#313030"/>
<path d="M194.174 481.681L185.021 487.462L181.167 488.907H174.423L168.161 487.462L162.862 484.571L158.044 479.754L154.672 473.973L152.264 462.894L154.672 454.704L158.044 449.405L162.862 444.588L170.569 441.698L177.313 439.771L185.021 441.698L190.32 444.588L194.174 447.96L198.991 454.704L201.4 460.485V466.747L198.991 473.973L194.174 481.681Z" fill="#B0DA3E"/>
<path d="M165.27 462.413L169.606 460.967L170.088 460.004V458.077L167.197 454.705V450.369V447.479H169.124L171.533 447.961L173.941 451.333L177.314 454.705L179.24 452.296L181.649 448.442L184.058 447.961L186.466 450.369L185.503 454.705L184.058 458.559H188.875H195.137V460.967L191.284 464.821L185.503 466.748L182.613 468.675L185.503 471.565L188.875 473.974V476.864V478.791H186.466L182.613 476.864L179.24 472.047L177.314 473.974L175.387 476.864L172.978 480.236H169.606H168.642V476.864L169.606 472.047L171.533 466.748L169.606 468.675H165.27H162.38L160.453 466.748V464.821L165.27 462.413Z" fill="#FD2927"/>
<path d="M173.523 448.46C174.622 449.621 176.246 453.941 177.662 452.774C178.034 452.464 178.423 446.655 182.506 446.035C189.267 445.003 188.156 453.027 186.696 457.285C188.489 456.591 195.313 456.242 196.328 457.646C200.275 463.127 185.557 467.881 185.579 468.845C197.929 477.738 184.953 487.15 179.653 473.075C176.98 476.188 175.965 480.62 171.487 481.838C164.241 483.812 167.996 473.109 169.214 469.691C168.803 469.296 161.207 472.674 158.923 467.283C156.509 461.576 167.844 460.403 168.087 459.236C163.891 453.394 164.506 438.907 173.528 448.46H173.523ZM170.698 449.593C169.942 448.849 168.713 447.822 168.081 449.119C168.718 451.471 169.079 453.901 170.066 456.152C171.053 458.402 172.722 459.575 173.156 461.796C171.228 461.926 169.113 462.383 167.269 462.964C165.949 463.375 160.592 464.904 161.878 466.866C166.355 469.201 169.84 464.255 174.042 466.279C174.933 467.514 171.611 471.699 171.058 473.515C170.478 475.426 170.156 477.265 170.342 479.278C174.51 478.996 176.793 468.535 179.077 468.546C183.154 470.21 182.433 477.101 187.818 477.022C189.312 475.5 180.538 468.163 179.929 466.319C183.03 465.93 186.104 465.146 188.89 463.714C189.538 463.381 194.433 460.409 193.463 459.552C191.173 458.351 183.572 462.321 182.433 460.708C181.294 459.095 186.6 451.73 184.435 448.838C179.934 448.217 180.532 457.68 177.944 457.9C175.587 458.103 172.626 451.488 170.703 449.599L170.698 449.593Z" fill="black"/>
<path d="M197.748 479.621C189.323 490.843 173.37 493.466 161.934 485.153C146.697 474.072 147.825 451.132 164.325 441.969C188.917 428.305 213.769 458.294 197.748 479.627V479.621ZM192.098 447.388C180.233 436.984 160.456 441.613 155.421 456.743C149.516 474.495 164.838 490.832 182.748 486.326C200.173 481.945 205.615 459.241 192.092 447.382L192.098 447.388Z" fill="black"/>
<path d="M381.564 482.164L383.491 486.499L386.381 492.28L390.717 497.097L397.943 501.915L406.132 506.732L415.767 508.177H424.92L432.146 506.732L442.743 500.951L449.969 494.689L456.714 486.499L459.604 478.31L461.531 465.303L459.604 453.742L453.341 442.181L446.116 434.955L437.926 428.692L430.219 426.765L423.474 424.838H417.694L410.95 426.765L404.687 428.692L398.425 431.101L393.126 434.955L387.345 440.735L383.491 447.961L379.637 455.187L378.674 465.303V472.529L379.637 478.31L381.564 482.164Z" fill="black"/>
<path d="M433.592 486.981L428.775 490.353L425.885 491.798H419.622H414.805L410.469 490.353L406.616 486.981L401.798 483.609L398.908 480.237L396.981 475.42L396.018 469.639V465.785L396.981 460.486L398.908 456.151L400.835 453.26L404.207 448.925L408.542 446.034L414.805 442.662H419.622L425.885 443.626L433.592 446.034L437.928 450.852L442.745 457.596L445.154 462.895V468.676L442.745 475.42L439.855 482.164L433.592 486.981Z" fill="#B0DA3E"/>
<path d="M438.564 448.46C464.995 473.622 423.451 511.732 400.691 483.231C380.937 458.498 415.821 426.811 438.564 448.46ZM435.711 450.772C411.569 428.182 381.169 465.693 405.789 484.906C428.397 502.551 455.679 469.466 435.711 450.772Z" fill="black"/>
<path d="M431.182 468.194L425.883 470.121L427.81 472.529L430.219 475.42L431.182 476.865L432.146 480.237L431.182 481.682L427.81 480.237L424.438 476.865L422.03 472.529L421.066 475.42L418.176 480.237L416.249 481.682L412.877 482.646L411.913 480.237V476.865L412.877 472.529L414.804 470.121L411.913 470.602L408.541 471.566L404.687 470.121L403.242 468.194L404.687 466.267L408.541 464.34L412.877 463.377V461.45L411.432 459.041L409.986 454.224L409.505 451.333L411.432 450.37H413.358L416.249 453.742L418.176 455.187L421.066 457.114L422.993 453.742L424.438 451.333L426.847 449.888L429.255 452.297V456.151L427.81 460.968H431.182L434.073 460.486L436.963 460.968L437.927 463.377L435.518 465.303L433.591 467.23L431.182 468.194Z" fill="#FD2927"/>
<path d="M417.574 452.543C418.471 453.563 419.125 454.443 419.875 455.582C420.619 455.594 421.194 449.25 425.074 448.375C431.232 446.994 431.7 455.644 429.179 459.535C447.191 456.981 438.512 468.27 428.052 470.825C431.063 472.985 436.245 478.675 432.163 482.132C428.542 485.194 423.709 478.833 422.13 475.906C421.403 475.906 417.828 486.13 411.529 484.241C407.474 483.028 412.183 472.596 411.692 471.947C399.241 476.808 397.769 462.902 410.57 462.361C411.393 461.447 404.818 449.334 410.305 448.274C413.621 447.631 415.662 450.366 417.568 452.543H417.574ZM414.315 452.971C413.875 452.526 411.957 451.094 411.416 451.077C409.544 453.473 416.046 463.483 415.64 464.047C413.92 464.199 404.367 466.849 404.373 468.282C407.886 472.201 412.6 467.323 416.768 468C418.217 469.46 410.424 479.955 413.672 481.528C414.112 481.742 415.753 479.865 416.091 479.476C418.358 476.881 418.482 474.975 419.909 472.556C422.948 467.402 424.978 476.041 427.178 478.173C429.377 480.304 431.999 480.333 429.963 477.079C429.123 475.737 422.176 469.297 422.971 468.569C425.311 469.477 436.431 464.244 436.493 462.648C434.018 459.473 426.698 465.44 424.905 462.958C423.822 461.464 430.099 453.688 426.631 451.088C422.847 452.001 423.253 459.874 420.411 460.133C418.132 460.342 415.961 454.652 414.315 452.977V452.971Z" fill="black"/>
<path d="M522.711 329.938L39.0572 339.572L38.0938 341.499L38.5755 344.871L39.0572 350.652L46.2831 380.519L57.8445 387.263L65.5522 395.452L66.5156 394.007L71.3329 377.628L78.0771 368.476L79.5223 370.884V382.927L78.0771 398.343L82.8943 392.08L88.1933 385.336L96.8644 377.628L99.7548 378.592V385.336L93.4923 399.306L90.602 406.532L107.462 392.562L130.104 381.482L156.599 374.738L167.197 373.775L177.313 371.366V369.921L173.941 366.067L170.569 359.323L167.678 351.615V346.316L170.087 344.389L174.904 346.316L182.612 351.133L186.947 357.396L191.283 359.805L192.246 353.542L194.173 346.798L198.509 341.981H202.844L206.216 346.316V353.542L203.808 362.213L204.289 365.585L210.552 363.177L220.668 360.286L225.485 362.213L225.967 366.549L221.15 371.366L215.369 375.702L209.107 379.555L227.412 398.824L242.828 415.203L252.944 424.838L265.469 435.436L279.439 443.143L288.592 446.034L296.781 447.961H304.97L313.16 446.034L320.867 443.625L328.093 438.808L335.801 433.027L343.509 425.319L345.917 420.984H341.582L331.947 418.575L328.093 416.167L328.575 413.758L334.356 412.313L344.472 413.758L351.216 415.203L344.954 405.569L341.582 398.343V392.562L343.99 390.635L350.734 395.452L355.552 402.678L357.96 409.904H360.851L367.595 401.233L387.346 389.19L402.279 385.818L415.768 384.373L429.738 385.818L444.189 390.153L454.306 397.379L466.831 407.014L483.691 420.502L494.289 423.874H506.332L515.003 420.502L519.821 417.13L526.565 407.496L523.674 408.459L517.894 407.496V405.569L524.638 397.861L528.01 393.525L526.565 391.599L523.674 384.373L524.638 382.446L534.272 384.373V374.738L537.644 368.957L541.498 371.366V384.373L548.242 382.446L553.06 354.024L544.389 331.864L541.498 329.938H522.711Z" fill="black"/>
<path d="M473.575 364.14L476.465 368.958L474.538 371.366L471.166 372.811L465.385 375.22L464.422 377.629V380.037L467.794 381.964H471.648L476.465 380.037L480.801 377.629L480.319 380.037L478.874 383.891L477.428 390.154L476.465 394.489L479.837 396.416H482.727L485.136 394.489L487.545 388.708L489.472 385.818L490.435 381.001L491.399 383.409L494.289 385.818L495.734 388.708L497.179 390.154L501.033 391.599H504.405L505.85 388.708L504.405 385.818L501.033 383.409L498.143 381.001L494.289 376.665L498.143 375.22L504.405 371.848L509.222 368.958L510.668 365.104L509.222 363.177H502.96L499.588 365.104L495.734 366.549V364.14L497.179 355.469V353.061L495.734 350.652L494.289 349.207H492.362L490.435 350.652L487.545 355.469L486.1 360.287L485.136 363.177L482.727 359.323L479.837 355.469L476.465 353.061L471.648 351.615L470.203 353.061L471.648 359.323L473.575 364.14Z" fill="#FD2927"/>
<path d="M511.901 362.711C515.099 366.658 506.054 373.397 503.02 375.202C501.954 375.833 498.176 377.034 498.006 377.243C496.811 378.737 502.467 381.472 503.634 382.555C506.2 384.94 508.473 389.012 505.884 392.159C501.745 397.194 492.976 388.589 490.935 384.551C488.927 389.401 485.059 400.657 478.072 398.525C473.623 397.166 477.029 383.948 478.241 380.598C477.367 380.384 477.925 381.399 477.271 381.704C473.837 383.305 466.416 384.636 463.433 381.743C456.581 375.106 474.717 369.754 474.846 368.474C471.829 364.82 468.846 358.645 468.779 353.806C468.671 345.979 478.207 352.194 481.1 354.917C482.403 356.141 483.429 358.284 484.399 359.378C484.85 359.886 484.85 359.846 485.572 359.733C486.79 355.008 488.149 345.945 494.865 348.472C500.397 350.553 499.563 358.137 497.646 362.513L498.26 363.664C501.04 361.983 509.719 360.004 511.907 362.711H511.901ZM509.251 364.239C506.606 364.059 503.978 364.324 501.475 365.198C499.349 365.942 495.835 369.331 493.704 367.668C491.894 366.252 495.029 362.88 495.469 360.32C495.858 358.058 496.563 351.348 493.664 350.795C489.519 350.006 488.803 361.397 487.884 363.444C487.546 364.194 487.427 364.814 486.407 364.842C483.824 365.068 481.867 359.942 480.294 358.228C479.521 357.382 472.743 352.154 472.038 352.955C471.288 359.784 476.324 364.989 479.927 370.143C477.525 371.519 466.551 375.168 465.536 377.198C463.918 380.423 468.333 380.79 470.623 380.593C474.299 380.271 477.44 377.311 480.886 376.171C485.11 377.564 481.692 380.192 480.79 382.854C480.13 384.794 477.22 395.085 479.668 395.807C483.722 394.589 486.147 388.826 487.534 385.081C488.183 383.339 487.788 379.814 490.456 379.583C493.123 379.352 493.523 383.192 494.612 384.675C495.897 386.429 500.42 391.065 502.698 390.625C503.29 390.399 503.956 389.813 504.108 389.209C504.785 386.593 495.756 380.542 493.743 378.354C493.112 377.666 492.159 377.175 492.345 376.076C496.095 375.45 500.55 373.521 503.584 371.243C504.582 370.493 510.277 365.226 509.257 364.233L509.251 364.239Z" fill="#313030"/>
<path d="M80.0026 310.669H72.7767V314.041L75.1853 315.968L81.9295 318.377L93.4909 319.822L121.431 320.304L174.903 319.34L225.002 318.377H269.321H317.012L327.128 317.414L333.873 314.523L339.172 309.224H337.726L329.537 307.779L322.793 305.37L318.457 301.517L317.012 298.626L318.457 296.699L329.537 295.736L337.726 298.626L333.873 291.882V287.065V283.211L336.281 280.802L339.172 282.247L344.471 287.065L346.879 293.809L349.77 298.626L351.697 295.736L354.105 287.065L351.697 280.802L348.324 273.576L345.434 266.35L340.617 258.161V252.862L341.58 246.6L346.879 241.301L351.697 235.52L354.105 229.258V218.66L349.77 211.915L341.58 208.062L178.275 204.689H93.9727L92.5275 206.135L89.6371 216.733V223.477L92.5275 230.221L86.7468 229.258H81.4478L76.6305 231.666L72.7767 235.52L70.8498 239.374L67.4777 246.6V252.38L65.5508 263.942L67.4777 278.875L69.8863 288.028L72.7767 289.955L75.1853 287.065L80.0026 283.211L84.3381 280.321H88.1919L89.6371 283.211L86.7468 288.028L82.8929 294.291L78.0757 299.59L75.1853 303.443H78.0757L84.3381 301.035H89.6371H93.9727L96.863 303.443V306.816L93.9727 310.669L89.6371 312.115H84.3381L80.0026 310.669Z" fill="black"/>
<path d="M359.254 168.56C368 171.864 372.32 179.624 369.968 188.861C385.335 188.731 400.634 190.09 415.933 191.111C433.618 192.295 452.498 193.096 470.007 195.684C479.182 197.043 498.327 202.564 498.97 214.09C499.184 217.925 496.15 219.188 495.739 221.292C495.372 223.158 495.818 225.465 496.579 227.19L554.42 350.925C555.548 352.527 558.689 351.151 560.877 351.229C578.877 351.867 577.242 360.85 574.507 375.066C572.967 383.063 570.486 391.758 567.915 399.49C564.565 409.567 559.507 426.631 546.249 426.208C543.864 426.135 542.409 424.46 540.277 424.009L537.457 434.723C556.636 431.018 548.172 459.88 535.484 460.708C533.29 460.849 530.876 460.122 528.739 460.094C516.085 459.925 502.963 460.252 490.432 461.865C483.158 462.801 475.979 464.831 468.693 465.699L451.928 419.029L363.765 422.317L366.59 470.82C345.601 470.921 324.708 469.81 303.685 470.278C281.85 468.028 257.726 471.006 236.021 469.145C233.387 468.919 229.897 468.175 228.43 465.744L363.241 467.746C363.912 467.272 363.827 466.235 363.793 465.479C363.071 449.165 360.15 432.874 359.699 416.514C359.158 414.14 357.68 414.98 356.818 413.717C355.532 411.834 355.554 407.83 354.917 405.507C353.756 401.294 350.857 396.867 347.552 394.104C346.887 393.546 344.067 391.899 343.475 392.418C342.043 402.05 350.541 409.29 353.62 417.794C345.957 414.727 337.588 413.306 329.377 414.416C329.107 415.708 329.507 415.319 330.094 415.685C335.186 418.849 343.216 419.723 349.109 420.061C333.471 440.774 315.009 454.624 287.518 447.53C253.863 438.845 237.921 409.854 214.919 387.625C213.622 386.373 208.079 381.066 206.708 381.162C206.026 381.783 205.643 381.862 206.139 382.848C207.193 384.929 214.022 388.482 216.041 390.433C221.72 395.937 221.404 406.601 211.051 403.882C205.507 402.428 199.203 394.781 197.133 389.61C195.898 392.508 195.379 395.514 194.127 398.446C192.351 402.597 184.761 414.321 179.381 411.873C174.001 409.426 176.358 398.582 177.39 394.115C178.123 390.946 179.46 388.222 179.928 385.098C175.118 388.736 170.663 390.856 164.426 390.174C159.221 389.604 155.533 385.442 157.191 380.113C157.76 378.269 159.841 377.626 159.345 376.064C136.969 378.625 115.19 387.495 98.0583 402.055C93.8233 405.653 90.2255 410.181 86.0525 413.875C83.904 413.525 84.6822 411.653 85.1671 410.153C86.4416 406.217 92.2218 399.405 94.3308 394.51C96.3778 389.751 97.844 384.016 98.7294 378.895C97.5226 377.581 87.0675 388.324 86.0356 389.598C84.9303 390.974 83.2949 393.179 82.3983 394.544C81.6765 395.638 77.3794 406.014 76.714 400.065L77.8644 370.431C73.2121 375.382 69.8793 383.937 68.4413 390.608C68.0804 392.277 67.7421 399.422 66.868 399.749L53.8697 387.117L50.2437 382.279C55.0708 383.756 59.5032 386.491 62.6443 390.456C63.6875 391.775 63.8454 394.285 65.4638 394.121C65.6556 390.642 66.383 387.191 67.3191 383.846C68.2552 380.502 73.167 367.504 76.4997 367.03C79.0486 366.67 80.3231 369.128 80.6445 371.328C81.6257 378.089 81.0956 385.392 80.1201 392.136L81.2423 392.418C83.0863 387.512 93.2763 375.839 98.4474 375.602C100.494 375.506 101.662 376.814 102 378.749C102.728 382.956 96.5357 395.931 94.5451 400.358C94.3308 400.837 93.812 401.779 94.5056 402.01C109.714 385.251 132.22 378.083 153.988 374.085C161.003 372.794 168.311 371.694 175.428 371.559C175.574 369.393 173.482 368.051 172.501 366.314C169.873 361.662 165.024 350.682 166.118 345.607C166.225 345.111 166.935 343.588 167.347 343.323C172.039 340.363 180.137 348.06 183.605 350.716L190.078 358.019C190.541 353.598 190.575 348.37 193.225 344.525C195.661 340.983 201.08 338.818 204.949 341.192C210.977 344.897 207.103 357.461 205.879 363.094C206.201 363.444 209.928 361.307 210.825 360.997C226.953 355.476 234.673 361.617 220.237 373.792C217.395 376.188 214.163 377.897 210.96 379.73L241.598 411.958C264.002 435.535 292.999 460.026 326.169 438.552C329.355 436.488 341.152 426.828 342.629 423.997C342.928 423.422 342.979 422.937 342.911 422.306C339.449 422.046 326.383 419.751 325.977 415.798C325.227 408.49 344.034 411.112 347.987 412.713C344.107 407.79 339.996 400.899 340.052 394.386C340.143 384.207 353.062 392.824 354.861 398.232L358.695 407.074L355.351 335.141L38.9146 340.808C37.7304 341.603 39.8394 349.572 40.2342 351.393C46.8489 382.053 58.6574 414.591 70.2571 443.74C72.1124 448.404 75.0843 457.568 77.4245 461.385C77.9039 462.163 78.2309 462.688 79.1276 463.066L126.92 462.93C126.452 452.757 127.224 443.357 130.021 433.607C131.454 428.599 134.273 418.183 140.206 417.287C146.38 416.356 153.661 416.926 159.931 416.712C178.214 416.08 196.676 415.262 215.043 415.697C217.547 416.221 218.517 418.076 219.515 420.247C223.739 429.434 228.712 453.987 228.301 463.928C228.284 464.38 228.752 465.767 227.585 465.18C225.346 464.053 222.69 454.917 222.38 452.34C221.122 441.84 225.188 425.746 213.019 419.971C205.141 416.232 187.067 418.702 177.977 418.967C167.465 419.277 153.621 418.527 143.6 420.118C136.969 421.172 135.22 426.281 133.405 431.915C129.999 442.505 128.995 454.161 130.303 465.186C119.701 466.162 109.055 465.93 98.4136 466.291C89.7292 466.585 77.4584 468.389 69.1124 467.442C65.3172 467.013 60.3491 463.979 58.3077 460.782C52.5614 451.77 56.3848 440.718 66.3323 437.013L66.5184 436.229C30.0385 372.32 26.9144 289.266 57.4562 222.318C66.2026 203.145 68.915 197.827 90.6259 194.584C111.632 191.443 135.266 189.921 156.503 188.844C165.294 188.398 174.148 188.37 182.951 188.223L183.796 187.378C182.336 176.421 196.107 167.06 205.569 172.53L208.772 187.09C214.705 188.116 220.942 187.062 227.043 187.152C228.786 187.174 230.325 187.75 232.062 187.772C268.999 188.201 305.969 187.4 342.9 187.744C340.864 178.947 345.968 171.498 354.178 168.571H359.254V168.56ZM351.641 177.018H361.791L362.637 177.864V186.887C362.637 187.135 364.03 188.364 364.611 188.319C365.564 188.376 365.874 187.699 366.021 186.881C366.461 184.428 365.739 174.746 364.081 173.037C361.425 170.302 348.263 173.33 346.244 176.127C344.801 178.129 346.583 184.812 346.791 187.4L351.37 187.733C351.912 187.18 349.419 177.706 351.652 177.018H351.641ZM201.921 178.992V193.372H195.148V196.197C197.624 195.91 209.765 198.323 210.374 195.34C210.227 193.349 207.819 194.314 206.652 193.434C205.304 192.413 204.594 178.174 203.488 175.456C200.415 174.165 189.514 174.334 187.778 177.266C186.864 178.812 186.684 186.616 188.375 187.456C193.524 190.034 190.744 182.607 191.218 180.131C192.024 175.936 198.086 178.045 200.962 178.248L201.915 178.986L201.921 178.992ZM359.75 187.096L359.57 180.362C358.927 179.449 355.413 179.595 354.404 180.362L353.75 181.682L354.218 187.129L359.75 187.101V187.096ZM194.02 180.977C195.035 183.768 193.479 188.753 197.973 187.468C200.759 183.915 199.124 178.761 194.02 180.977ZM351.353 191.116L210.712 190.096L209.81 191.111C215.601 191.624 214.186 197.252 209.641 199.124C203.347 201.718 189.092 201.069 191.765 191.122C154.772 191.754 117.294 192.098 81.1126 200.297C79.4772 200.669 77.2554 201.188 75.7046 201.678C74.7459 201.977 74.2215 201.442 74.4809 202.959C86.4134 203.105 98.3741 202.784 110.312 202.936C226.068 204.419 341.84 207.351 457.686 208.011C468.434 208.073 477.75 208.592 488.667 207.453C489.491 207.368 490.32 207.949 490.077 206.63C484.415 200.934 475.934 199.705 468.299 198.515C456.191 196.631 443.92 195.989 431.723 195.052C428.565 194.81 425.272 194.381 422.125 193.936L376.262 192.329L373.78 199.44C365.378 202.073 352.261 202.468 351.353 191.111V191.116ZM365.987 191.15L363.275 191.195L362.288 193.975L355.312 193.378V196.761C360.962 196.079 366.624 198.171 372.156 196.699V194.573C369.077 193.44 365.835 196.051 365.993 191.156L365.987 191.15ZM91.3928 205.778H70.2459C67.9394 205.778 64.071 214.564 63.0954 216.673C51.0445 242.777 42.6985 275.027 39.5124 303.624C39.1796 306.612 36.4503 337.492 38.142 337.746L355.87 332.101C354.821 299.936 355.848 267.493 358.69 235.389C359.429 227.066 360.912 218.681 361.419 210.38C361.008 210.306 360.303 209.726 360.1 209.726H349.103L352.735 213.707C356.778 220.305 357.59 227.957 353.513 234.718C350.699 239.388 345.235 242.884 343.182 248.072C336.697 264.476 361.25 278.789 353.637 295.182C353.034 296.473 349.712 300.815 348.269 300.516C346.036 294.279 343.611 288.212 338.682 283.571L335.575 281.343C331.594 292.903 341.248 300.68 349.966 306.139C350.631 306.776 349.955 307.577 349.301 307.78C346.769 308.575 340.752 303.494 338.203 302.112C332.445 298.994 323.687 294.838 317.529 298.548L322.419 302.671C328.492 306.234 335.265 307.808 342.336 307.283C340.938 311.986 336.748 315.415 332.479 317.44C320.451 323.146 299.619 319.808 286.255 319.667C238.023 319.148 189.954 320.908 141.892 321.404C126.367 321.567 87.4623 323.705 74.8869 317.874C69.6594 315.449 69.0842 308.389 74.0298 308.558C78.9753 308.727 83.3682 310.87 89.374 310.052C96.4117 309.094 99.3779 302.219 90.6033 301.689L69.9696 306.714L80.9152 294.826L88.0093 282.759C87.248 281.619 87.1578 282.2 86.4416 282.285C83.1088 282.68 78.2761 285.386 76.167 287.98C75.2929 289.058 73.5786 293.422 72.0222 293.129C69.2929 291.674 68.4357 289.165 67.5334 286.306C63.0108 271.931 62.351 237.882 77.4809 229.367C81.5299 227.089 85.1502 226.485 89.701 227.765C86.9886 220.265 88.7649 212.968 91.3928 205.778ZM349.464 213.876C345.466 209.883 337.909 209.415 332.49 209.139C320.152 208.513 307.114 209.399 294.663 209.184C240.713 208.254 186.723 206.776 132.863 206.32C120.688 206.218 108.496 206.32 96.3214 206.494C91.5732 207.571 91.0375 219.498 91.5338 223.401C91.9116 226.344 93.3609 229.457 94.2067 232.282C87.4961 231.842 85.7987 227.765 78.8118 231.837C68.2609 237.983 66.3943 262.711 67.7703 273.668C67.9846 275.349 70.776 288.685 71.932 288.668C73.9903 284.738 88.2405 274.102 90.5864 281.321C92.2669 286.492 82.9735 296.84 80.1088 301.08C83.0243 300.122 85.7818 298.514 88.9341 298.323C99.6485 297.669 102.722 309.584 92.5263 312.658C86.4811 314.479 80.9321 312.048 74.7459 312.088C74.261 312.088 73.1782 312.178 73.3474 312.923C78.7046 316.971 84.998 318.195 91.6466 318.596C116.019 320.045 143.702 317.688 168.339 317.423C213.481 316.932 258.572 316.994 303.68 317.468C314.665 317.586 329.569 319.284 337.255 310.12C331.611 310.819 317.073 305.806 315.387 300.127C312.669 290.992 330.595 294.731 335 296.575C331.988 292.402 329.101 286.424 332.738 281.631C337.549 275.292 342.613 282.245 345.24 286.616C346.729 289.091 348.026 293.512 349.363 295.464C349.983 296.366 350.321 295.825 350.677 295.069C356.868 281.98 339.776 267.55 338.919 254.597C338.169 243.239 345.308 242.777 349.881 235.068C353.581 228.842 355.03 219.464 349.447 213.893L349.464 213.876ZM521.093 328.707L470.103 211.936L365.017 210.419C364.132 211.344 362.885 221.901 362.637 224.111C359.023 255.984 357.438 291.928 359.271 323.896C359.417 326.423 359.118 329.011 359.242 331.537L521.087 328.712L521.093 328.707ZM540.83 327.579L538.033 321.043C527.267 322.802 520.54 312.359 515.921 304.278C505.771 286.492 489.925 246.995 488.961 226.914C488.538 218.179 500.543 218.449 494.436 211.293C488.402 209.105 480.727 211.479 474.287 211.423L523.963 327.257C524.369 328.131 525.051 328.092 525.858 328.182C530.798 328.746 535.862 326.975 540.83 327.584V327.579ZM536.324 317.992L491.78 225.515C494.087 242.072 499.009 258.956 505.043 274.559C508.765 284.191 521.628 314.349 531.401 317.564C533.115 318.128 534.565 318.071 536.324 317.992ZM547.411 380.412C548.679 377.807 551.849 357.416 551.55 354.365C551.2 350.829 546.068 338.874 544.315 335.101C543.644 333.652 542.606 330.692 541.117 330.404C538.45 330.714 526.613 330.635 525.316 332.09L511.512 421.195L518.639 416.486L524.476 409.634C507.914 409.482 521.577 399.941 526.083 394.33C525.023 391.645 523.078 390.01 522.26 387.05C519.982 378.816 526.382 378.376 531.807 382.29C529.935 369.985 540.068 359.339 543.52 377.068C543.773 378.382 543.023 383.965 545.369 382.595C545.527 381.839 547.309 380.638 547.411 380.418V380.412ZM521.662 331.532L359.248 334.915L361.583 404.486L362.637 405.134C368.936 397.595 377.271 391.882 386.44 388.33C402.918 381.946 425.661 380.959 442.138 387.653C463.939 396.518 478.483 425.802 504.463 422.887C505.793 422.74 507.152 422.424 508.184 421.533C512.098 399.315 514.991 376.803 518.358 354.449C519.508 346.825 521.499 339.303 521.668 331.532H521.662ZM224.297 362.716C222.645 360.737 217.699 362.102 215.336 362.716C211.293 363.771 205.626 367.679 202.62 368.102C201.611 368.243 200.285 367.566 200.46 366.467C200.618 365.457 202.879 361.6 203.443 359.841C204.622 356.164 207.346 344.446 202.073 342.912C197.212 341.496 194.635 349.273 193.716 352.938C193.112 355.352 193.124 360.393 192.21 362.141C189.977 366.41 185.009 356.857 183.593 355.205C181.659 352.944 172.93 344.79 170.15 345.686C167.319 347.869 170.059 354.032 171.187 356.897C173.426 362.553 176.95 365.203 179.888 369.743C180.272 370.329 180.616 370.809 180.481 371.564C175.563 372.433 170.003 374.807 165.644 377.316C162.644 379.042 158.956 380.378 159.762 384.112C160.963 389.689 171.322 386.243 174.819 384.8C178.315 383.356 181.231 380.17 184.902 380.672C186.802 381.878 182.607 387.783 181.896 389.621C180.757 392.57 179.911 396.416 179.426 399.557C178.941 402.698 177.249 409.95 182.313 408.665C186.199 407.678 191.466 397.443 192.74 393.704C193.327 391.989 194.167 385.566 195.492 385.144C198.859 384.066 200.911 390.845 202.558 393.179C204.757 396.309 210.887 402.642 215.037 401.351C219.188 400.059 215.348 394.144 213.458 392.435L200.218 380.88C206.15 378.393 211.823 376.2 217.084 372.365C218.449 371.367 224.263 366.467 224.765 365.344C225.188 364.391 224.929 363.489 224.286 362.716H224.297ZM556.467 355.34C555.7 355.504 554.742 355.91 554.465 356.722C551.493 377.655 547.196 398.407 541.54 418.753C543.723 424.415 552.79 423.09 556.343 418.945C561.165 413.317 567.982 389.711 569.877 381.726C571.039 376.826 574.388 362.638 573.413 358.436C573.193 357.483 572.618 356.609 571.71 356.192C569.319 355.098 559.089 354.771 556.461 355.34H556.467ZM535.196 375.235C534.751 378.596 535.523 382.764 535.196 386.232C530.707 388.527 529.393 381.997 525.046 382.848C524.166 387.918 528.125 390.698 530.645 394.335C530.493 395.215 521.64 403.025 520.252 404.841C519.818 405.405 519.158 405.557 519.412 406.533C520.517 407.514 527.205 404.3 528.756 405.946C530.538 408.383 521.341 418.127 519.361 419.74C517.709 421.088 511.19 424.601 510.683 425.723L505.867 456.998C505.918 458.086 526.754 455.007 527.318 454.071C535.066 431.768 541.777 409.11 546.452 385.916L545.64 385.11L540.277 387.918C541.298 381.884 541.191 375.427 537.17 370.448C536.691 370.448 535.281 374.593 535.196 375.23V375.235ZM468.417 410.717C447.496 393.106 439.195 384.399 409.138 386.209C395.187 387.05 362.079 397.928 362.079 415.274C362.079 421.979 367.03 419.041 371.355 418.917C390.901 418.353 410.457 417.338 430.003 416.661C438.23 416.373 446.52 416.464 454.748 416.21L456.118 418.223L470.898 462.084C471.507 462.451 472.201 462.412 472.878 462.412C481.325 462.366 492.288 458.673 501.034 458.368L502.545 457.624L507.559 425.706C491.352 428.39 479.955 420.428 468.417 410.712V410.717ZM540.61 455.938C542.775 452.898 547.247 442.641 545.623 439.24C544.411 436.703 537.209 437.007 535.478 439.246C533.143 442.268 532.185 451.026 530.087 454.742C528.965 457.19 533.121 459.271 535.049 459.434C536.978 459.598 539.55 457.415 540.604 455.938H540.61ZM62.8191 463.297C64.9056 465.304 73.979 466.207 74.4414 464.295C72.5918 460.41 68.6895 443.216 65.7684 441.462C62.7063 439.624 60.163 442.077 59.7965 445.15C59.3566 448.866 60.1969 460.771 62.8191 463.297Z" fill="#313030"/>
<path d="M468.462 220.631C484.455 251.128 497.933 283.615 502.805 318.014C502.529 318.409 495.536 319.057 494.307 319.12C462.118 320.811 425.289 322.819 393.377 320.811C389.08 320.541 377.869 319.204 374.378 317.371C369.997 315.071 372.196 305.789 372.247 301.948C372.557 278.619 370.837 253.981 374.57 230.962C375.236 226.868 375.659 219.774 380.441 218.787C386.063 217.626 396.478 216.814 402.4 216.498C414.044 215.877 428.509 215.99 440.205 216.464C446.814 216.735 458.774 217.366 464.955 218.782C466.325 219.097 467.352 219.859 468.468 220.631H468.462ZM466.224 222.87C465.649 222.346 464.053 221.737 463.258 221.601C455.007 220.208 443.052 219.588 434.56 219.284C419.39 218.742 396.326 218.697 381.664 221.703C377.813 222.492 377.937 227.934 377.378 231.515C373.724 254.889 375.58 278.41 375.066 301.948C374.892 309.945 371.587 315.448 382.719 316.807C403.409 319.339 427.195 317.947 448.049 317.411C452.391 317.298 462.66 318.274 466.043 317.36C466.376 317.27 467.222 316.683 466.692 316.306C465.299 314.349 460.398 311.89 462.412 309.211L490.354 289.824C493.399 289.565 495.125 296.574 494.583 298.988C494.532 299.213 492.181 300.944 491.865 302.619C491.301 305.608 494.476 308.242 495.92 310.469L499.106 312.916C494.735 287.439 485.414 261.972 474.395 238.665C472.996 235.699 467.989 224.477 466.229 222.864L466.224 222.87ZM484.698 312.674C483.897 312.009 483.649 310.683 482.143 310.943C481.004 311.14 476.583 313.424 475.213 314.123C473.842 314.822 471.869 315.702 470.904 316.858L487.252 316.294C488.047 315.556 485.262 313.136 484.692 312.668L484.698 312.674Z" fill="#313030"/>
<path d="M135.883 303.335L164.364 239.027L162.413 281.177C166.275 270.589 170.149 260.001 174.011 249.413C172.638 266.365 171.266 283.316 169.894 300.281" stroke="#FD2927" stroke-width="4.0361" stroke-miterlimit="10"/>
<path d="M189.967 234.829L200.354 267.319L212.475 241.071L182.178 300.402" stroke="#FD2927" stroke-width="4.0361" stroke-miterlimit="10"/>
<path d="M211.334 232.193L216.541 226.367L232.429 272.594L227.061 274.747" stroke="#FD2927" stroke-width="4.0361" stroke-miterlimit="10"/>
<path d="M197.934 300.645L234.797 232.893" stroke="#FD2927" stroke-width="4.0361" stroke-miterlimit="10"/>
<path d="M237.123 259.584L247.361 240.237L239.827 293.339L272.695 234.762L270.421 290.998" stroke="#FD2927" stroke-width="4.0361" stroke-miterlimit="10"/>
<path d="M410.571 509.165C399.823 505.782 391.386 501.208 384.732 491.864C367.217 467.266 379.871 432.704 408.873 425.423C447.496 415.73 478.591 459.163 454.788 491.639C448.184 500.65 438.474 505.737 428.052 509.171H410.571V509.165ZM445.855 436.657C404.785 402.664 354.264 462.405 393.642 497.047C433.534 532.139 485.995 469.871 445.855 436.657Z" fill="#313030"/>
</g>
<defs>
<linearGradient id="paint0_linear_108_6" x1="-55" y1="289" x2="1046.5" y2="-117.5" gradientUnits="userSpaceOnUse">
<stop stop-color="#7FAF25"/>
<stop offset="0.569796"/>
</linearGradient>
<linearGradient id="paint1_linear_108_6" x1="213.5" y1="73.5" x2="770" y2="328.5" gradientUnits="userSpaceOnUse">
<stop stop-color="#466B01"/>
<stop offset="1"/>
</linearGradient>
<linearGradient id="paint2_linear_108_6" x1="124.381" y1="384.238" x2="686.55" y2="756.664" gradientUnits="userSpaceOnUse">
<stop offset="0.409688" stop-color="#5C5C5C"/>
<stop offset="0.885696"/>
</linearGradient>
<clipPath id="clip0_108_6">
<rect width="539.534" height="340.606" fill="white" transform="translate(36.6484 168.56)"/>
</clipPath>
</defs>
</svg>
