<svg width="678" height="680" viewBox="0 0 678 680" fill="none" xmlns="http://www.w3.org/2000/svg">
<path d="M248.775 8.75771L288.046 72.2618L264.658 81.7149L248.775 8.75771Z" fill="white"/>
<path d="M445.657 23.8312L436.546 90.6645L404.39 77.1858L445.657 23.8312Z" fill="white"/>
<path d="M383.271 17.9603L402.148 81.4849L378.123 84.03L383.271 17.9603Z" fill="white"/>
<path d="M305.211 8.06487L324.088 71.5895L300.062 74.1346L305.211 8.06487Z" fill="white"/>
<path d="M357.441 64.3879L335.302 65.8399L342.455 5.40623L357.441 64.3879Z" fill="black" stroke="#737373" stroke-width="1.64135"/>
<path d="M117.486 103.23L175.879 136.992L151.219 161.641L117.486 103.23Z" fill="white"/>
<path d="M211.434 107.488L186.239 128.377L159.798 70.846L211.434 107.488Z" fill="black" stroke="#737373" stroke-width="1.64135"/>
<path d="M208.791 43.6532L252.032 95.4212L220.405 110.097L208.791 43.6532Z" fill="white"/>
<path d="M491.601 46.8554L477.858 112.892L446.719 97.2067L491.601 46.8554Z" fill="white"/>
<path d="M535.399 75.4042L511.387 138.437L483.12 118.026L535.399 75.4042Z" fill="white"/>
<path d="M622.145 197.753L570.258 240.85L555.669 209.182L622.145 197.753Z" fill="white"/>
<path d="M676.532 361.858L597.277 373.377L598.19 345.232L676.532 361.858Z" fill="white"/>
<path d="M597.063 282.083L590.607 249.998L653.799 253.976L597.063 282.083Z" fill="black" stroke="#737373" stroke-width="1.64135"/>
<path d="M528.446 162.818L512.483 142.219L577.146 108.593L528.446 162.818Z" fill="black" stroke="#737373" stroke-width="1.64135"/>
<path d="M607.809 151.779L559.876 197.541L546.658 177.318L607.809 151.779Z" fill="white"/>
<path d="M675.665 305.505L611.394 321.66L609.874 297.548L675.665 305.505Z" fill="white"/>
<path d="M672.673 408.592L606.415 407.378L611.253 383.708L672.673 408.592Z" fill="white"/>
<path d="M593.862 440.629L602.533 420.207L653.275 453.803L593.862 440.629Z" fill="black" stroke="#737373" stroke-width="1.64135"/>
<path d="M658.835 513.742L581.749 484.644L593.503 463.536L658.835 513.742Z" fill="white"/>
<path d="M605.2 530.458L544.897 502.976L558.755 483.186L605.2 530.458Z" fill="white"/>
<path d="M589.856 573.571L535.794 535.673L550.654 520.447L589.856 573.571Z" fill="white"/>
<path d="M83.9595 137.823L145.634 165.136L123.756 192.284L83.9595 137.823Z" fill="white"/>
<path d="M109.552 208.587L95.3804 231.379L35.3045 178.226L109.552 208.587Z" fill="black" stroke="#737373" stroke-width="1.64135"/>
<path d="M33.701 256.692L99.4659 267.318L89.4459 293.167L33.701 256.692Z" fill="white"/>
<path d="M21.4297 309.341L87.1232 301.732L85.8479 324.302L21.4297 309.341Z" fill="white"/>
<path d="M10.7724 354.64L76.157 341.786L75.6887 369.682L10.7724 354.64Z" fill="white"/>
<path d="M29.6961 406.853L85.4738 369.969L95.9933 398.12L29.6961 406.853Z" fill="white"/>
<path d="M78.0394 431.38L85.8712 452.339L10.222 468.665L78.0394 431.38Z" fill="black" stroke="#737373" stroke-width="1.64135"/>
<path d="M59.0069 500.739L110.703 458.324L124.057 485.246L59.0069 500.739Z" fill="white"/>
<path d="M96.2005 544.687L139.917 494.086L157.661 518.341L96.2005 544.687Z" fill="white"/>
<path d="M158.928 538.747L181.345 555.507L133.798 595.732L158.928 538.747Z" fill="black" stroke="#737373" stroke-width="1.64135"/>
<path d="M173.281 630.065L195.155 566.874L220.619 582.834L173.281 630.065Z" fill="white"/>
<path d="M219.89 651.707L233.74 586.287L260.99 598.959L219.89 651.707Z" fill="white"/>
<path d="M257.939 666.112L264.375 599.553L292.873 609.093L257.939 666.112Z" fill="white"/>
<path d="M299.992 612.019L327.848 614.757L307.984 673.783L299.992 612.019Z" fill="black" stroke="#737373" stroke-width="1.64135"/>
<path d="M356.118 676.923L338.188 612.502L368.211 611.156L356.118 676.923Z" fill="white"/>
<path d="M409.437 675.155L381.691 614.314L411.137 608.307L409.437 675.155Z" fill="white"/>
<path d="M462.353 658.322L427.955 600.978L456.541 591.706L462.353 658.322Z" fill="white"/>
<path d="M520.045 632.027L469.641 588.084L493.974 570.449L520.045 632.027Z" fill="white"/>
<path d="M493.133 552.745L520.717 528.193L560.157 600.275L493.133 552.745Z" fill="black" stroke="#737373" stroke-width="1.64135"/>
<path d="M242.884 479.963C247.749 492.465 262.362 512.324 281.896 491.747C301.43 471.17 318.78 487.993 325.013 498.976C332.786 508.842 352.904 520.678 371.195 489.095C389.486 457.511 409.751 477.096 417.597 490.837" stroke="#A30200" stroke-width="11.8874"/>
<path d="M265.506 232.164C266.676 240.253 273.222 253.249 290.044 240.524C306.867 227.799 315.795 238.915 318.157 246.063C321.758 252.531 333.426 260.52 351.288 240.739C369.149 220.958 379.589 233.9 382.576 242.844" stroke="#A30200" stroke-width="11.8874"/>
<ellipse cx="342.437" cy="344.745" rx="280.344" ry="288.268" transform="rotate(-0.415182 342.437 344.745)" fill="#C50705"/>
<ellipse cx="342.445" cy="344.743" rx="256.569" ry="262.513" transform="rotate(-0.415182 342.445 344.743)" fill="black"/>
<ellipse cx="339.048" cy="348.03" rx="24.0045" ry="14.9222" transform="rotate(79.6774 339.048 348.03)" fill="#7FAF25"/>
<ellipse cx="323.535" cy="349.607" rx="10.3888" ry="20.9362" transform="rotate(17.4748 323.535 349.607)" fill="white"/>
<ellipse cx="350.79" cy="343.495" rx="10.3888" ry="20.9362" transform="rotate(144.767 350.79 343.495)" fill="white"/>
<ellipse cx="334.63" cy="335.486" rx="19.1952" ry="11.3906" transform="rotate(77.8536 334.63 335.486)" fill="#7FAF25"/>
<ellipse cx="331.871" cy="323.073" rx="9.68863" ry="10.5178" transform="rotate(38.9868 331.871 323.073)" fill="white"/>
<ellipse cx="323.249" cy="323.672" rx="5.77166" ry="6.87703" transform="rotate(38.9868 323.249 323.672)" fill="#C50705"/>
<ellipse cx="339.247" cy="320.193" rx="5.77165" ry="6.87702" transform="rotate(125.996 339.247 320.193)" fill="#C50705"/>
<path d="M440.115 303.622C441.031 302.51 442.995 302.122 443.772 300.987C445.296 298.751 443.974 294.634 444.16 292.183C444.488 287.953 452.23 290.579 453.37 295.129C454.2 298.432 446.917 301.126 451.488 306.361C457.05 312.729 459.811 305.302 463.808 306.599C465.568 307.167 467.076 309.096 467.539 310.431C469.681 316.633 458.591 314.031 455.563 316.838C450.459 324.105 446.274 331.324 443.86 340.138C442.442 345.319 441.793 356.607 439.06 360.394C436.327 364.181 428.325 359.576 423.27 357.014C409.501 350.034 401.392 345.79 387.083 340.084C380.812 337.585 378.568 334.653 379.182 340.984C380.131 350.745 381.891 358.563 381.228 368.158C380.942 372.265 379.219 377.504 379.514 381.526C379.679 383.805 380.816 386.461 380.953 389.076C381.047 390.917 379.906 400.523 380.295 401.209C380.55 401.661 381.052 402.081 381.444 402.493C382.99 403 391.23 393.14 393.029 391.888C398.481 388.107 406.356 391.988 408.43 399.439C409.741 404.141 405.98 413.433 405.052 418.052C403.206 427.187 399.763 445.474 403.614 455.927C404.671 458.794 410.198 467.265 402.836 465.17C397.551 463.669 398.969 458.341 397.49 455.279C393.839 447.744 388.041 450.831 386.319 454.332C385.779 455.43 386.51 456.861 385.077 457.477C381.38 459.07 375.694 453.649 378.21 451.725C378.917 451.185 380.335 451.499 381.343 451.165C383.812 450.345 386.666 447.306 388.007 445.416C391.043 441.131 386.804 440.513 382.603 441.855C380.197 442.625 377.693 445.87 373.921 441.723C368.216 435.453 381.113 438.323 383.442 437.61C384.26 437.357 386.832 435.764 387.418 435.25C389.377 433.532 389.217 429.382 389.088 426.595C388.404 425.672 388.252 426.222 387.708 426.41C386.054 426.99 384.159 427.57 382.596 428.173C379.666 429.308 372.795 433.627 368.966 432.511C358.91 429.586 362.598 419.889 362.577 415.49C362.558 411.866 362.4 407.48 361.97 403.743C361.717 401.558 360.761 393.084 358.594 391.472C354.833 389.581 352.425 392.062 349.977 392.812C343.121 394.913 336.01 396.997 327.299 396.272C323.627 395.97 313.248 392.65 316.274 397.793C319.452 403.194 324.834 409.033 328.258 414.229C336.412 426.615 311.429 423.336 314.424 433.436C314.985 435.328 317.773 441.846 318.859 443.782C320.44 446.596 326.929 453.847 321.988 454.406C316.783 454.994 315.484 448.894 313.395 446.236C310.477 442.519 306.544 439.216 302.179 439.994C297.505 440.826 299.338 445.332 296.915 446.443C294.493 447.553 289.275 444.256 289.828 441.852C290.139 440.486 293.481 438.465 294.521 436.789C295.276 435.565 296.531 432.332 295.634 430.583C293.262 425.973 290.148 427.579 286.618 426.878C282.14 425.986 278.347 422.368 281.793 420.621C285.382 418.805 292.775 424.709 297.366 421.156C300.477 418.749 292.564 413.125 294.504 411.568C297.182 409.418 299.094 414.047 300.589 415.649C302.083 417.251 306.744 420.081 308.427 419.471C309.668 419.02 314.728 412.544 315.442 411.186C315.735 410.626 316.188 409.731 315.812 408.941C315.086 407.415 307.23 399.831 305.232 398.224C303.885 397.139 303.076 397.224 302.096 397.699C299.855 398.77 297.113 401.561 295.089 403.101C294.396 403.63 293.197 403.811 292.445 404.356C290.025 406.116 290.46 409.08 285.354 409.038C280.95 409.003 278.332 405.538 274.704 403.931C271.951 402.712 266.93 402.167 263.832 401.252C254.297 398.434 249.759 394.953 248.558 387.169C248.185 384.745 249.349 378.035 248.717 376.717C247.992 375.212 245.262 372.813 244.247 370.561C241.061 363.503 253.015 364.869 257.764 363.812C260.932 363.11 263.327 361.471 266.254 360.535C273.055 358.367 278.676 360.06 282.031 353.76C283.81 350.414 282.339 348.599 279.194 344.45C277.39 342.072 274.521 338.24 272.611 336.046C271.876 335.201 270.709 333.849 269.713 333.276C264.115 331.677 267.265 337.337 264.467 338.438C261.182 339.734 256.44 334.369 259.108 332.824C259.649 332.512 260.564 332.668 261.193 332.152C262.004 331.487 262.561 328.103 261.925 326.836C260.927 324.844 253.72 321.313 251.401 320.65C247.436 319.513 244.782 321.106 242.042 320.487C237.551 319.471 234.428 312.963 241.729 314.348C244.302 314.835 259.697 321.034 254.212 314.407C250.518 309.941 245.955 305.225 241.402 301.162C240.291 300.171 238.946 299.654 237.795 298.414C233.764 294.074 238.582 292.133 243.144 294.74C248.584 297.848 249.793 305.726 257.277 306.961C265.32 308.286 263.064 303.574 264.969 300.252C266.597 297.417 272.966 299.129 274.347 303.257C275.103 305.518 272.867 305.735 271.949 306.951C269.351 310.387 267.719 316.337 270.881 321.839C272.899 325.343 277.884 327.276 280.966 330.05C284.047 332.824 286.528 336.303 289.409 339.343C291.598 341.656 294.404 343.239 295.968 346.141C297.93 349.775 292.744 348.246 292.038 350.136C291.937 350.411 293.372 356.667 293.754 356.963C296.573 357.578 298.858 356.618 301.363 356.513C307.898 356.238 315.697 357.821 322.989 359.554C332.604 361.839 341.869 365.535 351.542 369.421C354.641 369.543 356.515 364.4 357.085 362.272C358.406 357.348 358.329 351.101 359.071 345.84C359.547 342.481 360.828 339.423 361.209 336.02C361.676 331.819 359.367 323.214 365.089 322.833C372.443 322.341 390.239 329.805 398.552 333.772C405.008 336.853 424.56 348.575 429.391 347.295C432.008 346.604 431.096 341.425 431.512 339.335C432.124 336.269 437.045 331.457 435.28 327.673C432.826 322.406 426.205 327.087 423.848 327.321C421.178 327.582 416.358 323.061 418.647 321.296C420.516 319.853 426.808 320.868 428.378 317.846C430.522 313.711 417.448 309.076 414.876 306.583C412.304 304.09 413.66 300.943 417.742 302.621C420.904 303.921 423.107 308.068 427.823 310.167C433.582 312.731 434.338 308.223 433.793 304.871C433.314 301.932 427.897 292.635 435.39 295.659C440.68 297.797 437.16 300.899 440.128 303.61L440.115 303.622Z" fill="#B0DA3E"/>
<ellipse cx="9.68744" cy="11.5427" rx="9.68744" ry="11.5427" transform="matrix(0.532697 -0.846311 0.845902 0.533331 264.84 408.582)" fill="#FD2927"/>
<ellipse cx="4.04634" cy="4.82128" rx="4.04634" ry="4.82128" transform="matrix(0.532697 -0.846311 0.845902 0.533331 314.922 455.179)" fill="white"/>
<ellipse cx="4.04634" cy="4.82128" rx="4.04634" ry="4.82128" transform="matrix(0.532697 -0.846311 0.845902 0.533331 286.506 446.706)" fill="white"/>
<ellipse cx="4.04634" cy="4.82128" rx="4.04634" ry="4.82128" transform="matrix(0.532697 -0.846311 0.845902 0.533331 276.648 424.311)" fill="white"/>
<ellipse cx="4.04634" cy="4.82128" rx="4.04634" ry="4.82128" transform="matrix(0.532697 -0.846311 0.845902 0.533331 289.986 413.498)" fill="white"/>
<ellipse cx="4.04634" cy="4.82128" rx="4.04634" ry="4.82128" transform="matrix(0.532697 -0.846311 0.845902 0.533331 368.135 442.448)" fill="white"/>
<ellipse cx="4.04634" cy="4.82128" rx="4.04634" ry="4.82128" transform="matrix(0.532697 -0.846311 0.845902 0.533331 375.928 455.472)" fill="white"/>
<ellipse cx="4.04634" cy="4.82128" rx="4.04634" ry="4.82128" transform="matrix(0.532697 -0.846311 0.845902 0.533331 397.576 464.453)" fill="white"/>
<ellipse cx="4.04634" cy="4.82128" rx="4.04634" ry="4.82128" transform="matrix(0.532697 -0.846311 0.845902 0.533331 255.311 336.622)" fill="white"/>
<ellipse cx="4.04634" cy="4.82128" rx="4.04634" ry="4.82128" transform="matrix(0.532697 -0.846311 0.845902 0.533331 233.473 317.851)" fill="white"/>
<ellipse cx="4.04634" cy="4.82128" rx="4.04634" ry="4.82128" transform="matrix(0.532697 -0.846311 0.845902 0.533331 233.818 297.133)" fill="white"/>
<ellipse cx="4.04634" cy="4.82128" rx="4.04634" ry="4.82128" transform="matrix(0.532697 -0.846311 0.845902 0.533331 263.682 303.312)" fill="white"/>
<ellipse cx="4.04634" cy="4.82128" rx="4.04634" ry="4.82128" transform="matrix(0.532697 -0.846311 0.845902 0.533331 460.031 311.068)" fill="white"/>
<ellipse cx="4.04634" cy="4.82128" rx="4.04634" ry="4.82128" transform="matrix(0.532697 -0.846311 0.845902 0.533331 442.361 293.345)" fill="white"/>
<ellipse cx="4.04634" cy="4.82128" rx="4.04634" ry="4.82128" transform="matrix(0.532697 -0.846311 0.845902 0.533331 427.365 296.654)" fill="white"/>
<ellipse cx="4.04634" cy="4.82128" rx="4.04634" ry="4.82128" transform="matrix(0.532697 -0.846311 0.845902 0.533331 414 325.164)" fill="white"/>
<ellipse cx="10.4375" cy="12.4365" rx="10.4375" ry="12.4365" transform="matrix(0.86852 0.495579 -0.494963 0.868956 247.975 350.589)" fill="#FD2927"/>
<ellipse cx="4.04634" cy="4.82128" rx="4.04634" ry="4.82128" transform="matrix(0.532697 -0.846311 0.845902 0.533331 408.715 305.686)" fill="white"/>
<path d="M278.745 468.1L283.311 309.964C295.472 281.783 321.917 273.733 330.409 466.977C352.921 504.575 364.784 516.872 370.951 309.441C379.038 274.578 414.956 265.435 423.278 475.561" stroke="#E6BC2F" stroke-width="8.20677"/>
<ellipse cx="309.623" cy="238.994" rx="35.2891" ry="34.4684" transform="rotate(120.464 309.623 238.994)" fill="#C50705"/>
<circle cx="310.332" cy="239.412" r="32.0064" transform="rotate(120.464 310.332 239.412)" fill="#FD2927"/>
<path d="M335.672 240.036C325.408 235.903 301.102 230.176 285.99 240.329" stroke="#B91513" stroke-width="1.64135"/>
<path d="M302.561 240.649C300.345 243.638 296.223 249.726 297.461 250.163C299.009 250.709 300.648 246.066 302.561 240.649Z" fill="#B30806"/>
<path d="M315.489 243.473C313.926 248.723 311.536 258.614 314.486 256.174C317.437 253.734 316.384 246.69 315.489 243.473Z" fill="#B30806"/>
<path d="M322.958 217.389L316.811 227.404C316.69 224.46 316.821 218.008 318.315 215.75C319.808 213.492 322.033 215.902 322.958 217.389Z" fill="#B30806"/>
<ellipse cx="393.113" cy="244.102" rx="35.2891" ry="34.4684" transform="rotate(120.464 393.113 244.102)" fill="#C50705"/>
<circle cx="393.812" cy="244.519" r="32.0064" transform="rotate(120.464 393.812 244.519)" fill="#FD2927"/>
<path d="M419.156 245.144C408.892 241.011 384.586 235.283 369.474 245.437" stroke="#B91513" stroke-width="1.64135"/>
<path d="M386.045 245.759C383.829 248.748 379.707 254.835 380.946 255.272C382.493 255.819 384.133 251.176 386.045 245.759Z" fill="#B30806"/>
<path d="M398.974 248.583C397.41 253.833 395.021 263.723 397.971 261.283C400.921 258.844 399.869 251.8 398.974 248.583Z" fill="#B30806"/>
<path d="M406.442 222.499L400.296 232.513C400.175 229.569 400.306 223.117 401.799 220.859C403.293 218.602 405.517 221.012 406.442 222.499Z" fill="#B30806"/>
</svg>
