<svg width="685" height="687" viewBox="0 0 685 687" fill="none" xmlns="http://www.w3.org/2000/svg">
<path d="M251.658 8.85766L291.386 73.0997L267.726 82.6625L251.658 8.85766Z" fill="white"/>
<path d="M450.843 24.1086L441.626 91.7183L409.097 78.083L450.843 24.1086Z" fill="white"/>
<path d="M387.72 18.1687L406.816 82.4314L382.511 85.006L387.72 18.1687Z" fill="white"/>
<path d="M308.749 8.15891L327.845 72.4216L303.541 74.9963L308.749 8.15891Z" fill="white"/>
<path d="M361.589 65.1364L339.193 66.6053L346.429 5.46839L361.589 65.1364Z" fill="black" stroke="#737373" stroke-width="1.66042"/>
<path d="M118.845 104.43L177.917 138.585L152.97 163.519L118.845 104.43Z" fill="white"/>
<path d="M213.887 108.737L188.398 129.869L161.65 71.6692L213.887 108.737Z" fill="black" stroke="#737373" stroke-width="1.66042"/>
<path d="M211.216 44.1603L254.96 96.5298L222.965 111.377L211.216 44.1603Z" fill="white"/>
<path d="M497.312 47.3986L483.409 114.202L451.908 98.335L497.312 47.3986Z" fill="white"/>
<path d="M541.627 76.278L517.337 140.043L488.741 119.395L541.627 76.278Z" fill="white"/>
<path d="M629.38 200.051L576.89 243.649L562.132 211.613L629.38 200.051Z" fill="white"/>
<path d="M684.399 366.064L604.223 377.716L605.146 349.244L684.399 366.064Z" fill="white"/>
<path d="M604.001 285.36L597.471 252.901L661.396 256.926L604.001 285.36Z" fill="black" stroke="#737373" stroke-width="1.66042"/>
<path d="M534.586 164.71L518.437 143.87L583.852 109.853L534.586 164.71Z" fill="black" stroke="#737373" stroke-width="1.66042"/>
<path d="M614.89 153.543L566.4 199.836L553.028 179.378L614.89 153.543Z" fill="white"/>
<path d="M683.519 309.054L618.501 325.396L616.964 301.004L683.519 309.054Z" fill="white"/>
<path d="M680.491 413.333L613.462 412.105L618.356 388.16L680.491 413.333Z" fill="white"/>
<path d="M600.769 445.742L609.541 425.083L660.873 459.069L600.769 445.742Z" fill="black" stroke="#737373" stroke-width="1.66042"/>
<path d="M666.495 519.705L588.513 490.269L600.403 468.916L666.495 519.705Z" fill="white"/>
<path d="M612.238 536.614L551.234 508.813L565.254 488.793L612.238 536.614Z" fill="white"/>
<path d="M596.712 580.227L542.021 541.889L557.054 526.486L596.712 580.227Z" fill="white"/>
<path d="M84.9383 139.425L147.329 167.055L125.197 194.518L84.9383 139.425Z" fill="white"/>
<path d="M110.824 211.011L96.4883 234.068L35.7161 180.298L110.824 211.011Z" fill="black" stroke="#737373" stroke-width="1.66042"/>
<path d="M34.0827 259.674L100.612 270.424L90.4753 296.573L34.0827 259.674Z" fill="white"/>
<path d="M21.6687 312.938L88.1256 305.24L86.8354 328.073L21.6687 312.938Z" fill="white"/>
<path d="M10.8888 358.759L77.0332 345.755L76.5594 373.975L10.8888 358.759Z" fill="white"/>
<path d="M30.0396 411.573L86.4654 374.261L97.1071 402.739L30.0396 411.573Z" fill="white"/>
<path d="M78.9474 436.384L86.8707 457.588L10.3442 474.103L78.9474 436.384Z" fill="black" stroke="#737373" stroke-width="1.66042"/>
<path d="M59.6868 506.551L111.984 463.643L125.493 490.878L59.6868 506.551Z" fill="white"/>
<path d="M97.3139 551.007L141.538 499.819L159.489 524.355L97.3139 551.007Z" fill="white"/>
<path d="M160.777 545L183.455 561.955L135.356 602.648L160.777 545Z" fill="black" stroke="#737373" stroke-width="1.66042"/>
<path d="M175.292 637.377L197.42 573.452L223.18 589.598L175.292 637.377Z" fill="white"/>
<path d="M222.446 659.272L236.456 593.092L264.023 605.911L222.446 659.272Z" fill="white"/>
<path d="M260.938 673.843L267.448 606.51L296.277 616.161L260.938 673.843Z" fill="white"/>
<path d="M303.475 619.124L331.654 621.894L311.56 681.607L303.475 619.124Z" fill="black" stroke="#737373" stroke-width="1.66042"/>
<path d="M360.248 684.78L342.111 619.61L372.482 618.248L360.248 684.78Z" fill="white"/>
<path d="M414.196 682.992L386.128 621.444L415.916 615.367L414.196 682.992Z" fill="white"/>
<path d="M467.73 665.964L432.932 607.954L461.85 598.573L467.73 665.964Z" fill="white"/>
<path d="M526.09 639.364L475.101 594.91L499.717 577.07L526.09 639.364Z" fill="white"/>
<path d="M498.869 559.16L526.773 534.323L566.674 607.244L498.869 559.16Z" fill="black" stroke="#737373" stroke-width="1.66042"/>
<path d="M245.709 485.529C250.63 498.176 265.412 518.266 285.174 497.45C304.935 476.634 322.486 493.652 328.791 504.763C336.654 514.744 357.007 526.717 375.511 494.767C394.014 462.816 414.514 482.629 422.451 496.529" stroke="#A30200" stroke-width="12.0255"/>
<path d="M268.589 234.862C269.773 243.044 276.394 256.192 293.412 243.319C310.43 230.446 319.463 241.691 321.852 248.922C325.495 255.465 337.298 263.547 355.367 243.536C373.436 223.525 383.997 236.618 387.019 245.665" stroke="#A30200" stroke-width="12.0255"/>
<ellipse cx="346.414" cy="348.749" rx="283.601" ry="291.618" transform="rotate(-0.415182 346.414 348.749)" fill="#BDE22F"/>
<ellipse cx="346.417" cy="348.747" rx="259.55" ry="265.563" transform="rotate(-0.415182 346.417 348.747)" fill="black"/>
<path d="M303.063 470.976C310.425 458.432 325.209 468.162 331.682 474.596C360.175 505.369 315.636 540.887 295.641 536.011C280.275 532.264 251.214 509.94 243.629 491.435C248.87 495.975 270.232 501.777 282.742 505.605C298.38 510.39 293.861 486.657 303.063 470.976Z" fill="#CBD356"/>
<path d="M246.773 463.782C244.149 457.774 238.165 447.73 235.215 455.615C231.527 465.472 245.432 471.723 246.773 463.782Z" fill="#CBD356"/>
<path d="M411.665 445.185L418.277 438.573C403.339 387.883 373.317 284.591 372.729 276.951C372.141 269.311 356.322 265.931 348.486 265.196C330.854 242.275 306.856 253.197 297.06 261.523C275.315 255.646 265.96 269.36 264.001 276.951C264.001 279.645 258.124 288.265 234.615 301.194C211.107 314.124 219.433 337.927 226.534 348.212C230.942 349.926 240.052 354.677 241.227 359.966C242.403 365.256 251.512 368.537 255.92 369.517C257.634 378.577 263.12 396.258 271.348 394.495C279.576 392.731 288 400.617 291.183 404.78C298.53 431.962 307.345 434.166 311.753 438.573C315.28 442.1 327.426 442.002 333.058 441.512L341.139 438.573L348.486 445.185L356.567 453.266H366.117H380.076L388.891 450.328H402.115L411.665 445.185Z" fill="#7FAF25"/>
<path d="M466.519 463.616L445.214 475.371C435.663 471.453 416.563 460.678 416.563 448.923C416.563 437.169 403.339 432.761 396.727 432.027C407.257 431.537 421.411 430.851 393.789 432.027C366.166 433.202 360.729 414.885 361.464 405.579C347.947 395 341.139 377.173 339.425 369.582C334.282 368.847 323.703 365.321 322.528 357.093C321.059 346.807 315.916 349.746 311.508 338.726C307.981 329.911 312.977 324.768 315.916 323.299C314.691 322.319 312.096 318.303 311.508 310.075C310.92 301.847 323.507 293.913 329.874 290.974C335.751 280.395 343.587 278.73 346.771 279.22C368.81 267.465 377.626 276.281 378.361 279.22C379.095 282.158 391.584 285.097 396.727 284.362C400.841 283.775 405.298 292.933 407.012 297.586L423.909 304.198L431.99 323.299L440.071 332.849C453.589 336.963 453.05 354.154 451.091 362.235C459.907 366.937 463.09 375.948 463.58 379.866C457.703 407.489 461.131 413.415 463.58 412.926C474.159 428.794 467.988 447.944 463.58 455.535L466.519 463.616Z" fill="#466B01"/>
<path d="M355.925 278.254C358.279 276.805 364.958 268.958 366.833 266.387C369.343 262.947 371.882 259.262 373.105 255.16L376.182 255.54C376.337 256.35 376.663 257.182 376.371 258.019C375.111 261.68 367.916 270.774 365.483 274.998C363.606 278.253 361.485 281.486 360.432 285.148C369.486 294.135 374.437 306.251 377.983 318.334C380.032 325.312 380.66 333.186 382.623 339.659C386.268 351.672 388.798 354.745 388.687 368.676C388.621 377.165 388.376 377.218 389.696 385.498C391.227 395.133 389.105 402.857 384.681 411.46C380.866 418.869 373.117 423.501 365.53 426.406C357.728 429.392 357.617 428.019 350.286 433.197C342.955 438.376 334.675 439.291 330.109 430.536C329.209 428.81 328.823 425.457 327.845 424.232C324.644 420.244 316.79 417.635 311.842 410.308C292.664 381.891 307.596 349.158 332.767 330.841C334.035 329.918 338.995 327.653 339.212 327.366C340.977 325.021 338.744 311.114 338.692 307.184C338.629 302.421 340.641 292.515 339.143 288.49C333.946 282.516 328.42 276.733 322.811 271.154C321.32 269.676 312.897 262.72 312.849 262.046C312.785 261.297 313.787 260.25 314.332 260.177C317.103 259.827 338.02 281.824 344.337 280.855C345.707 280.645 347.187 279.064 348.655 278.791C350.998 278.372 353.783 279.58 355.942 278.248L355.925 278.254Z" fill="white"/>
<ellipse cx="6.63044" cy="7.90028" rx="6.63044" ry="7.90028" transform="matrix(0.619329 0.785136 -0.785597 0.618732 315.66 251.515)" fill="#FD2927"/>
<ellipse cx="6.63043" cy="7.90028" rx="6.63043" ry="7.90028" transform="matrix(0.808584 -0.588387 0.587772 0.809022 366.293 256.644)" fill="#FD2927"/>
<path d="M322.174 371.545C330.087 346.961 355.874 351.059 367.779 356.181C367.697 357.924 367.035 361.51 365.044 361.91C362.554 362.409 354.134 355.293 342.337 362.322C330.539 369.35 333.536 384.287 332.988 385.433C332.499 386.457 339.952 409.514 355.806 403.645C371.659 397.776 366.799 383.57 357.432 374.314C348.065 365.057 341.746 373.576 340.501 373.826C339.256 374.075 345.124 359.432 360.568 371.872C376.012 384.312 375.373 399.202 362.033 408.87C348.63 418.584 312.283 402.275 322.174 371.545Z" fill="#7FAF25"/>
<path d="M268.115 286.082L427.633 299.008C455.462 312.775 462.204 339.915 266.533 338.334C227.366 359.1 214.32 370.438 423.553 387.574C458.348 397.577 465.696 434.344 252.978 431.704" stroke="#C50705" stroke-width="8.30212"/>
<path d="M278.163 478.256C279.768 473.035 280.353 462.972 269.862 464.497C256.748 466.403 262.32 491.193 278.163 478.256Z" fill="#CBD356"/>
<path d="M400.768 225.886C387.97 232.796 380.372 216.811 378.172 207.954C369.76 166.867 426.26 159.585 440.831 174.121C452.028 185.291 465.306 219.447 462.198 239.202C460.07 232.604 444.811 216.568 436.097 206.809C425.206 194.611 416.766 217.247 400.768 225.886Z" fill="#CBD356"/>
<path d="M445.181 261.221C444.31 267.719 444.221 279.41 450.831 274.196C459.095 267.679 450.445 255.126 445.181 261.221Z" fill="#CBD356"/>
<path d="M425.844 232.576C421.765 236.21 416.048 244.511 425.809 248.646C438.011 253.814 446.099 229.727 425.844 232.576Z" fill="#CBD356"/>
</svg>
