<svg width="688" height="691" viewBox="0 0 688 691" fill="none" xmlns="http://www.w3.org/2000/svg">
<path d="M252.792 8.90083L292.698 73.4316L268.932 83.0375L252.792 8.90083Z" fill="white"/>
<path d="M452.861 24.2171L443.603 92.1308L410.927 78.4342L452.861 24.2171Z" fill="white"/>
<path d="M389.466 18.2534L408.648 82.805L384.235 85.3913L389.466 18.2534Z" fill="white"/>
<path d="M310.142 8.19727L329.324 72.7489L304.91 75.3351L310.142 8.19727Z" fill="white"/>
<path d="M363.217 65.4306L340.721 66.906L347.99 5.49398L363.217 65.4306Z" fill="black" stroke="#737373" stroke-width="1.66789"/>
<path d="M119.388 104.901L178.726 139.209L153.666 164.256L119.388 104.901Z" fill="white"/>
<path d="M214.849 109.229L189.247 130.455L162.379 71.9958L214.849 109.229Z" fill="black" stroke="#737373" stroke-width="1.66789"/>
<path d="M212.169 44.3616L256.109 96.9666L223.97 111.88L212.169 44.3616Z" fill="white"/>
<path d="M499.548 47.6146L485.583 114.719L453.94 98.78L499.548 47.6146Z" fill="white"/>
<path d="M544.053 76.6243L519.654 140.676L490.929 119.935L544.053 76.6243Z" fill="white"/>
<path d="M632.198 200.951L579.471 244.746L564.647 212.566L632.198 200.951Z" fill="white"/>
<path d="M687.465 367.71L606.929 379.415L607.856 350.815L687.465 367.71Z" fill="white"/>
<path d="M606.711 286.644L600.151 254.041L664.362 258.082L606.711 286.644Z" fill="black" stroke="#737373" stroke-width="1.66789"/>
<path d="M536.987 165.451L520.765 144.519L586.476 110.348L536.987 165.451Z" fill="black" stroke="#737373" stroke-width="1.66789"/>
<path d="M617.642 154.233L568.934 200.735L555.502 180.185L617.642 154.233Z" fill="white"/>
<path d="M686.589 310.446L621.279 326.862L619.735 302.36L686.589 310.446Z" fill="white"/>
<path d="M683.544 415.2L616.214 413.967L621.131 389.914L683.544 415.2Z" fill="white"/>
<path d="M603.46 447.754L612.271 427.002L663.834 461.142L603.46 447.754Z" fill="black" stroke="#737373" stroke-width="1.66789"/>
<path d="M669.481 522.051L591.149 492.482L603.093 471.033L669.481 522.051Z" fill="white"/>
<path d="M614.989 539.036L553.711 511.11L567.793 491.001L614.989 539.036Z" fill="white"/>
<path d="M599.387 582.844L544.451 544.333L559.551 528.861L599.387 582.844Z" fill="white"/>
<path d="M85.318 140.054L147.99 167.808L125.758 195.395L85.318 140.054Z" fill="white"/>
<path d="M111.316 211.962L96.916 235.123L35.8698 181.111L111.316 211.962Z" fill="black" stroke="#737373" stroke-width="1.66789"/>
<path d="M34.2418 260.842L101.07 271.64L90.888 297.907L34.2418 260.842Z" fill="white"/>
<path d="M21.7717 314.345L88.5273 306.612L87.2313 329.548L21.7717 314.345Z" fill="white"/>
<path d="M10.9408 360.372L77.3825 347.31L76.9066 375.656L10.9408 360.372Z" fill="white"/>
<path d="M30.178 413.434L86.8575 375.953L97.547 404.56L30.178 413.434Z" fill="white"/>
<path d="M79.3007 438.356L87.2592 459.654L10.3865 476.243L79.3007 438.356Z" fill="black" stroke="#737373" stroke-width="1.66789"/>
<path d="M59.9545 508.835L112.487 465.734L126.056 493.092L59.9545 508.835Z" fill="white"/>
<path d="M97.7497 553.495L142.173 502.076L160.204 526.723L97.7497 553.495Z" fill="white"/>
<path d="M161.494 547.459L184.274 564.49L135.959 605.365L161.494 547.459Z" fill="black" stroke="#737373" stroke-width="1.66789"/>
<path d="M176.078 640.253L198.306 576.04L224.182 592.259L176.078 640.253Z" fill="white"/>
<path d="M223.446 662.247L237.52 595.769L265.211 608.646L223.446 662.247Z" fill="white"/>
<path d="M262.107 676.883L268.647 609.248L297.606 618.942L262.107 676.883Z" fill="white"/>
<path d="M304.832 621.916L333.138 624.698L312.953 684.678L304.832 621.916Z" fill="black" stroke="#737373" stroke-width="1.66789"/>
<path d="M361.871 687.868L343.652 622.405L374.159 621.037L361.871 687.868Z" fill="white"/>
<path d="M416.056 686.072L387.862 624.247L417.784 618.143L416.056 686.072Z" fill="white"/>
<path d="M469.821 668.968L434.867 610.697L463.915 601.274L469.821 668.968Z" fill="white"/>
<path d="M528.448 642.247L477.229 597.593L501.957 579.672L528.448 642.247Z" fill="white"/>
<path d="M501.097 561.681L529.127 536.732L569.206 609.98L501.097 561.681Z" fill="black" stroke="#737373" stroke-width="1.66789"/>
<path d="M246.81 487.723C251.753 500.427 266.602 520.607 286.452 499.697C306.302 478.787 323.932 495.882 330.266 507.044C338.165 517.069 358.609 529.096 377.195 497.002C395.782 464.908 416.374 484.81 424.347 498.772" stroke="#A30200" stroke-width="12.0795"/>
<path d="M269.802 235.918C270.99 244.137 277.642 257.344 294.736 244.413C311.831 231.482 320.904 242.778 323.303 250.042C326.963 256.614 338.82 264.732 356.97 244.631C375.12 224.53 385.729 237.682 388.764 246.77" stroke="#A30200" stroke-width="12.0795"/>
<ellipse cx="347.975" cy="350.32" rx="284.876" ry="292.929" transform="rotate(-0.415182 347.975 350.32)" fill="#C50705"/>
<ellipse cx="347.977" cy="350.316" rx="260.717" ry="266.757" transform="rotate(-0.415182 347.977 350.316)" fill="black"/>
<path d="M252.792 8.89814L292.698 73.429L268.932 83.0348L252.792 8.89814Z" fill="white"/>
<path d="M452.861 24.2151L443.603 92.1289L410.927 78.4323L452.861 24.2151Z" fill="white"/>
<path d="M389.466 18.2498L408.648 82.8014L384.235 85.3876L389.466 18.2498Z" fill="white"/>
<path d="M310.142 8.19629L329.324 72.7479L304.91 75.3341L310.142 8.19629Z" fill="white"/>
<path d="M363.217 65.4286L340.721 66.9041L347.99 5.49203L363.217 65.4286Z" fill="black" stroke="#737373" stroke-width="1.66789"/>
<path d="M119.388 104.898L178.726 139.207L153.666 164.253L119.388 104.898Z" fill="white"/>
<path d="M214.849 109.227L189.247 130.453L162.379 71.9938L214.849 109.227Z" fill="black" stroke="#737373" stroke-width="1.66789"/>
<path d="M212.169 44.3597L256.109 96.9646L223.97 111.878L212.169 44.3597Z" fill="white"/>
<path d="M499.548 47.6129L485.583 114.717L453.94 98.7783L499.548 47.6129Z" fill="white"/>
<path d="M544.053 76.6216L519.654 140.674L490.929 119.933L544.053 76.6216Z" fill="white"/>
<path d="M632.198 200.95L579.471 244.745L564.647 212.565L632.198 200.95Z" fill="white"/>
<path d="M687.465 367.709L606.929 379.414L607.856 350.814L687.465 367.709Z" fill="white"/>
<path d="M606.711 286.641L600.151 254.038L664.362 258.08L606.711 286.641Z" fill="black" stroke="#737373" stroke-width="1.66789"/>
<path d="M536.987 165.449L520.765 144.517L586.476 110.346L536.987 165.449Z" fill="black" stroke="#737373" stroke-width="1.66789"/>
<path d="M617.642 154.23L568.934 200.732L555.502 180.182L617.642 154.23Z" fill="white"/>
<path d="M686.589 310.445L621.279 326.861L619.735 302.359L686.589 310.445Z" fill="white"/>
<path d="M683.544 415.198L616.214 413.964L621.131 389.911L683.544 415.198Z" fill="white"/>
<path d="M603.46 447.752L612.271 427L663.834 461.14L603.46 447.752Z" fill="black" stroke="#737373" stroke-width="1.66789"/>
<path d="M669.481 522.048L591.149 492.479L603.093 471.03L669.481 522.048Z" fill="white"/>
<path d="M614.989 539.034L553.711 511.108L567.793 490.999L614.989 539.034Z" fill="white"/>
<path d="M599.387 582.843L544.451 544.332L559.551 528.86L599.387 582.843Z" fill="white"/>
<path d="M85.318 140.052L147.99 167.806L125.758 195.393L85.318 140.052Z" fill="white"/>
<path d="M111.316 211.958L96.916 235.119L35.8698 181.107L111.316 211.958Z" fill="black" stroke="#737373" stroke-width="1.66789"/>
<path d="M34.2418 260.84L101.07 271.638L90.888 297.905L34.2418 260.84Z" fill="white"/>
<path d="M21.7717 314.344L88.5273 306.611L87.2313 329.547L21.7717 314.344Z" fill="white"/>
<path d="M10.9408 360.371L77.3825 347.309L76.9066 375.656L10.9408 360.371Z" fill="white"/>
<path d="M30.178 413.43L86.8575 375.95L97.547 404.556L30.178 413.43Z" fill="white"/>
<path d="M79.3007 438.355L87.2592 459.653L10.3865 476.242L79.3007 438.355Z" fill="black" stroke="#737373" stroke-width="1.66789"/>
<path d="M59.9545 508.834L112.487 465.733L126.056 493.09L59.9545 508.834Z" fill="white"/>
<path d="M97.7497 553.493L142.173 502.074L160.204 526.721L97.7497 553.493Z" fill="white"/>
<path d="M161.494 547.458L184.274 564.489L135.959 605.364L161.494 547.458Z" fill="black" stroke="#737373" stroke-width="1.66789"/>
<path d="M176.078 640.251L198.306 576.038L224.182 592.257L176.078 640.251Z" fill="white"/>
<path d="M223.446 662.244L237.52 595.766L265.211 608.643L223.446 662.244Z" fill="white"/>
<path d="M262.107 676.88L268.647 609.244L297.606 618.939L262.107 676.88Z" fill="white"/>
<path d="M304.832 621.914L333.138 624.696L312.953 684.676L304.832 621.914Z" fill="black" stroke="#737373" stroke-width="1.66789"/>
<path d="M361.871 687.866L343.652 622.403L374.159 621.036L361.871 687.866Z" fill="white"/>
<path d="M416.056 686.07L387.862 624.244L417.784 618.141L416.056 686.07Z" fill="white"/>
<path d="M469.821 668.965L434.867 610.694L463.915 601.272L469.821 668.965Z" fill="white"/>
<path d="M528.448 642.245L477.229 597.591L501.957 579.67L528.448 642.245Z" fill="white"/>
<path d="M501.097 561.68L529.127 536.731L569.206 609.98L501.097 561.68Z" fill="black" stroke="#737373" stroke-width="1.66789"/>
<path d="M246.81 487.72C251.753 500.424 266.602 520.605 286.452 499.695C306.302 478.785 323.932 495.88 330.266 507.041C338.165 517.066 358.609 529.094 377.195 496.999C395.782 464.905 416.374 484.807 424.347 498.77" stroke="#A30200" stroke-width="12.0795"/>
<path d="M269.802 235.917C270.99 244.136 277.642 257.343 294.736 244.412C311.831 231.481 320.904 242.777 323.303 250.041C326.963 256.613 338.82 264.731 356.97 244.63C375.12 224.529 385.729 237.681 388.764 246.769" stroke="#A30200" stroke-width="12.0795"/>
<ellipse cx="347.975" cy="350.317" rx="284.876" ry="292.929" transform="rotate(-0.415182 347.975 350.317)" fill="#C50705"/>
<ellipse cx="347.977" cy="350.315" rx="260.717" ry="266.757" transform="rotate(-0.415182 347.977 350.315)" fill="black"/>
<path d="M401.406 398.501L408.048 391.86C393.043 340.941 362.885 237.185 362.295 229.511C361.704 221.836 345.814 218.441 337.942 217.703C320.232 194.679 296.125 205.65 286.286 214.014C264.442 208.11 255.046 221.885 253.078 229.511C253.078 232.216 247.175 240.875 223.56 253.863C199.946 266.851 208.309 290.76 215.443 301.092C219.87 302.814 229.021 307.586 230.202 312.899C231.382 318.212 240.533 321.508 244.961 322.492C246.683 331.594 252.193 349.354 260.458 347.583C268.723 345.812 277.184 353.732 280.382 357.914C287.762 385.218 296.617 387.432 301.045 391.86C304.587 395.402 316.788 395.304 322.445 394.812L330.563 391.86L337.942 398.501L346.06 406.619H355.653H369.674L378.53 403.667H391.813L401.406 398.501Z" fill="#7FAF25"/>
<path d="M456.494 417.013L435.094 428.82C425.5 424.884 406.314 414.061 406.314 402.254C406.314 390.447 393.031 386.019 386.389 385.281C396.966 384.789 411.184 384.1 383.437 385.281C355.691 386.462 350.23 368.062 350.968 358.715C337.39 348.088 330.551 330.181 328.829 322.555C323.663 321.817 313.037 318.275 311.856 310.01C310.38 299.679 305.215 302.631 300.787 291.561C297.244 282.706 302.263 277.54 305.215 276.064C303.985 275.08 301.377 271.046 300.787 262.781C300.196 254.516 312.84 246.546 319.235 243.595C325.139 232.968 333.011 231.295 336.208 231.787C358.347 219.98 367.202 228.835 367.94 231.787C368.678 234.739 381.223 237.691 386.389 236.953C390.522 236.363 394.998 245.562 396.72 250.236L413.693 256.878L421.811 276.064L429.928 285.658C443.506 289.79 442.965 307.058 440.997 315.176C449.853 319.899 453.051 328.951 453.542 332.887C447.639 360.633 451.083 366.586 453.542 366.094C464.169 382.034 457.97 401.27 453.542 408.895L456.494 417.013Z" fill="#466B01"/>
<path d="M374.753 340.647C372.473 342.231 366.212 350.474 364.476 353.158C362.151 356.748 359.81 360.585 358.813 364.768L355.706 364.559C355.504 363.755 355.131 362.939 355.378 362.083C356.436 358.341 363.145 348.819 365.349 344.446C367.049 341.076 368.996 337.715 369.848 333.984C360.265 325.476 354.623 313.601 350.392 301.681C347.947 294.797 346.877 286.934 344.547 280.552C340.22 268.708 337.511 265.767 336.844 251.788C336.436 243.27 336.679 243.204 334.893 234.973C332.819 225.396 334.516 217.53 338.472 208.655C341.884 201.011 349.398 195.932 356.845 192.595C364.503 189.164 364.691 190.536 371.754 184.933C378.817 179.329 387.071 177.948 392.14 186.475C393.139 188.156 393.713 191.497 394.762 192.671C398.195 196.492 406.218 198.669 411.59 205.742C432.411 233.171 419.264 266.835 395.042 286.611C393.822 287.608 388.973 290.157 388.772 290.456C387.133 292.907 390.15 306.731 390.42 310.669C390.75 315.443 389.285 325.49 391.013 329.444C396.559 335.144 402.424 340.636 408.361 345.918C409.939 347.317 418.775 353.823 418.861 354.496C418.968 355.244 418.02 356.35 417.478 356.453C414.718 356.96 392.511 336.066 386.23 337.39C384.868 337.678 383.471 339.346 382.014 339.701C379.688 340.253 376.827 339.197 374.736 340.654L374.753 340.647Z" fill="white"/>
<ellipse cx="6.66024" cy="7.9358" rx="6.66024" ry="7.9358" transform="matrix(-0.662029 -0.749484 0.749977 -0.661458 416.631 365.216)" fill="#FD2927"/>
<ellipse cx="6.66024" cy="7.93579" rx="6.66024" ry="7.93579" transform="matrix(-0.774616 0.632438 -0.631848 -0.775087 365.564 362.899)" fill="#FD2927"/>
<path d="M403.391 245.197C396.828 270.295 370.736 267.626 358.511 263.153C358.496 261.401 358.959 257.767 360.934 257.255C363.403 256.615 372.245 263.282 383.685 255.574C395.125 247.866 391.285 233.052 391.77 231.873C392.203 230.818 383.44 208.11 367.868 214.882C352.296 221.653 357.964 235.629 367.875 244.39C377.787 253.15 383.649 244.254 384.883 243.934C386.118 243.614 381.051 258.628 364.867 247.014C348.682 235.4 348.491 220.431 361.33 209.989C374.23 199.498 411.595 213.824 403.391 245.197Z" fill="#7FAF25"/>
<path d="M367.742 419.674L376.027 424.1C420.391 394.952 510.914 335.957 518.086 333.162C525.259 330.368 523.891 314.177 522.311 306.431C539.198 282.796 521.698 262.915 510.837 255.929C510.142 233.313 494.231 228.323 486.363 228.655C483.774 229.441 473.774 226.307 454.486 207.483C435.199 188.659 414.75 203.607 406.936 213.434C406.575 218.171 404.666 228.313 399.925 230.986C395.184 233.659 394.688 243.373 395.032 247.895C386.823 252.187 371.429 262.618 375.525 270.012C379.62 277.406 374.499 287.804 371.426 292.078C347.443 307.071 347.897 316.187 344.946 321.71C342.585 326.129 346.223 337.775 348.338 343.046L353.52 349.956L349.308 358.946L343.899 369.071L346.685 378.251L350.758 391.668L356.154 399.284L360.013 411.994L367.742 419.674Z" fill="#7FAF25"/>
<path d="M366.028 477.764L348.514 460.716C349.494 450.393 354.277 428.89 365.575 425.461C376.873 422.031 377.252 408.034 376.029 401.465C379.572 411.443 384.361 424.848 375.172 398.64C365.982 372.433 382.002 361.863 391.161 359.854C397.385 343.775 412.535 332.029 419.331 328.167C418.537 323.009 418.84 311.812 426.405 308.282C435.863 303.869 431.538 299.783 440.843 292.331C448.288 286.369 454.689 289.67 456.959 292.066C457.543 290.604 460.645 286.937 468.383 283.971C476.12 281.006 487.419 290.789 492.101 296.051C503.984 298.614 507.871 305.66 508.329 308.863C526.058 326.617 520.156 337.663 517.546 339.227C514.936 340.79 515.755 353.652 517.962 358.38C519.727 362.163 512.224 369.119 508.252 372.125L506.827 390.295L490.826 403.635L484.004 414.189C483.993 428.383 467.313 432.881 458.974 433.355C457.026 443.201 449.293 448.89 445.67 450.504C417.405 452.914 412.709 457.939 413.894 460.15C401.728 474.948 381.521 474.604 372.938 472.582L366.028 477.764Z" fill="#466B01"/>
<path d="M252.371 335.699L246.548 343.068C267.376 391.894 309.404 491.436 310.883 498.989C312.363 506.543 328.54 508.066 336.444 507.882C356.714 528.689 379.38 514.987 388.179 505.535C410.561 508.857 418.291 494.082 419.358 486.279C419.043 483.592 423.899 474.305 445.841 458.657C467.784 443.009 456.694 420.236 448.407 410.805C443.809 409.61 434.165 405.935 432.374 400.795C430.583 395.655 421.111 393.447 416.599 392.985C413.83 384.145 406.29 367.147 398.288 369.868C390.285 372.589 380.959 365.707 377.296 361.926C366.789 335.666 357.736 334.498 352.823 330.615C348.893 327.51 336.787 329.027 331.225 330.174L323.506 334.051L315.404 328.313L306.397 321.195L296.868 322.312L282.943 323.943L274.491 327.906L261.298 329.452L252.371 335.699Z" fill="#7FAF25"/>
<path d="M195.502 323.723L215.383 309.506C225.369 312.298 245.684 320.815 247.059 332.542C248.433 344.269 262.141 347.121 268.823 347.081C258.375 348.8 244.334 351.139 271.755 346.737C299.176 342.336 306.741 359.975 307.096 369.344C321.818 378.319 330.694 395.309 333.292 402.682C338.508 402.814 349.475 405.095 351.609 413.167C354.277 423.256 359.065 419.723 364.751 430.202C369.299 438.585 364.916 444.299 362.156 446.109C363.492 446.943 366.552 450.646 368.1 458.786C369.648 466.927 358.018 476.314 352.009 479.99C347.382 491.231 339.759 493.808 336.526 493.692C315.912 507.995 306.086 500.231 305.01 497.385C303.933 494.539 291.13 493.067 286.085 494.401C282.049 495.469 276.532 486.852 274.278 482.411L256.648 477.79L246.352 459.678L237.174 451.094C223.207 448.57 221.735 431.356 222.745 423.065C213.4 419.405 209.17 410.786 208.224 406.935C210.858 378.689 206.745 373.178 204.359 373.952C191.95 359.358 195.868 339.531 199.378 331.442L195.502 323.723Z" fill="#466B01"/>
<path d="M306.173 379.883C305.187 377.287 298.704 369.218 296.521 366.884C293.599 363.759 290.443 360.559 286.626 358.58L287.58 355.615C288.409 355.615 289.291 355.45 290.062 355.896C293.437 357.829 301.053 366.642 304.762 369.839C307.62 372.304 310.41 375.007 313.824 376.736C324.398 369.497 337.286 366.896 349.876 365.675C357.147 364.968 365.034 365.833 371.791 365.117C384.33 363.784 387.839 361.867 401.564 364.602C409.927 366.268 409.932 366.52 418.352 366.778C428.146 367.083 435.367 370.634 443.021 376.62C449.612 381.78 452.722 390.299 454.158 398.332C455.634 406.593 454.258 406.444 457.985 414.653C461.713 422.862 461.055 431.205 451.556 434.059C449.683 434.622 446.303 434.371 444.91 435.105C440.371 437.511 436.317 444.769 428.155 448.27C396.502 461.835 367.021 440.932 353.693 412.644C353.021 411.22 351.721 405.898 351.48 405.63C349.498 403.447 335.355 403.029 331.469 402.339C326.757 401.504 317.363 397.651 313.109 398.37C306.235 402.373 299.488 406.735 292.926 411.217C291.187 412.409 282.736 419.408 282.062 419.33C281.31 419.251 280.467 418.065 280.497 417.514C280.674 414.713 306.32 398.222 306.555 391.806C306.606 390.416 305.325 388.657 305.333 387.157C305.36 384.767 307.078 382.247 306.17 379.865L306.173 379.883Z" fill="white"/>
<ellipse cx="6.66024" cy="7.9358" rx="6.66024" ry="7.9358" transform="matrix(0.887407 -0.460996 0.460322 0.887748 272.199 414.572)" fill="#FD2927"/>
<ellipse cx="6.66024" cy="7.9358" rx="6.66024" ry="7.9358" transform="matrix(-0.426203 -0.904632 0.904947 -0.425516 286.805 365.582)" fill="#FD2927"/>
<path d="M391.857 430.767C369.093 418.326 377.997 393.656 385.295 382.876C386.999 383.285 390.412 384.614 390.431 386.654C390.455 389.204 381.847 396.17 386.557 409.135C391.268 422.1 406.57 421.959 407.598 422.715C408.516 423.391 432.67 420.383 429.868 403.635C427.065 386.887 412.133 389.005 401.235 396.502C390.336 403.999 397.55 411.84 397.562 413.115C397.573 414.39 384.231 405.841 399.416 392.948C414.602 380.055 429.172 383.492 436.197 398.476C443.255 413.531 420.312 446.319 391.857 430.767Z" fill="#7FAF25"/>
<ellipse cx="279.197" cy="255.65" rx="35.8596" ry="35.0257" transform="rotate(120.464 279.197 255.65)" fill="#C50705"/>
<circle cx="279.918" cy="256.074" r="32.5238" transform="rotate(120.464 279.918 256.074)" fill="#FD2927"/>
<path d="M305.664 256.707C295.234 252.507 270.535 246.687 255.179 257.005" stroke="#B91513" stroke-width="1.66789"/>
<path d="M272.024 257.332C269.772 260.37 265.584 266.556 266.842 267C268.415 267.555 270.081 262.837 272.024 257.332Z" fill="#B30806"/>
<path d="M285.162 260.202C283.573 265.537 281.145 275.587 284.143 273.108C287.14 270.629 286.071 263.471 285.162 260.202Z" fill="#B30806"/>
<path d="M292.751 233.697L286.505 243.873C286.382 240.881 286.515 234.325 288.033 232.031C289.55 229.736 291.811 232.185 292.751 233.697Z" fill="#B30806"/>
<ellipse cx="454.215" cy="313.482" rx="35.8596" ry="35.0257" transform="rotate(120.464 454.215 313.482)" fill="#C50705"/>
<circle cx="454.932" cy="313.905" r="32.5238" transform="rotate(120.464 454.932 313.905)" fill="#FD2927"/>
<path d="M480.682 314.541C470.252 310.341 445.553 304.521 430.196 314.838" stroke="#B91513" stroke-width="1.66789"/>
<path d="M447.038 315.165C444.786 318.203 440.597 324.389 441.856 324.833C443.428 325.388 445.094 320.67 447.038 315.165Z" fill="#B30806"/>
<path d="M460.175 318.035C458.587 323.37 456.158 333.42 459.156 330.941C462.154 328.462 461.085 321.304 460.175 318.035Z" fill="#B30806"/>
<path d="M467.765 291.53L461.519 301.706C461.396 298.714 461.529 292.158 463.047 289.864C464.564 287.569 466.824 290.018 467.765 291.53Z" fill="#B30806"/>
<ellipse cx="367.231" cy="327.754" rx="17.9609" ry="11.1652" transform="rotate(153.875 367.231 327.754)" fill="#212D0B"/>
<ellipse cx="362.933" cy="316.908" rx="7.77322" ry="15.6651" transform="rotate(91.672 362.933 316.908)" fill="white"/>
<ellipse cx="372.887" cy="335.285" rx="7.77323" ry="15.6651" transform="rotate(-141.035 372.887 335.285)" fill="white"/>
<ellipse cx="375.361" cy="322.019" rx="14.3624" ry="8.52278" transform="rotate(152.051 375.361 322.019)" fill="#212D0B"/>
<ellipse cx="383.736" cy="317.505" rx="7.24931" ry="7.86974" transform="rotate(113.184 383.736 317.505)" fill="white"/>
<ellipse cx="381.55" cy="311.418" rx="4.31852" ry="5.14559" transform="rotate(113.184 381.55 311.418)" fill="#C50705"/>
<ellipse cx="387.317" cy="322.225" rx="4.31852" ry="5.14559" transform="rotate(-159.807 387.317 322.225)" fill="#C50705"/>
<ellipse cx="264.854" cy="291.734" rx="17.9609" ry="11.1652" transform="rotate(-26.1603 264.854 291.734)" fill="#212D0B"/>
<ellipse cx="269.154" cy="302.577" rx="7.77322" ry="15.6651" transform="rotate(-88.3628 269.154 302.577)" fill="white"/>
<ellipse cx="259.192" cy="284.206" rx="7.77323" ry="15.6651" transform="rotate(38.9298 259.192 284.206)" fill="white"/>
<ellipse cx="256.723" cy="297.472" rx="14.3624" ry="8.52278" transform="rotate(-27.9841 256.723 297.472)" fill="#212D0B"/>
<ellipse cx="248.356" cy="301.993" rx="7.24931" ry="7.86974" transform="rotate(-66.8508 248.356 301.993)" fill="white"/>
<ellipse cx="250.542" cy="308.079" rx="4.31852" ry="5.14559" transform="rotate(-66.8508 250.542 308.079)" fill="#C50705"/>
<ellipse cx="244.779" cy="297.275" rx="4.31852" ry="5.14559" transform="rotate(20.1579 244.779 297.275)" fill="#C50705"/>
<ellipse cx="326.552" cy="463.006" rx="17.9609" ry="11.1652" transform="rotate(-88.8965 326.552 463.006)" fill="#212D0B"/>
<ellipse cx="338.17" cy="464.15" rx="7.77322" ry="15.6651" transform="rotate(-151.099 338.17 464.15)" fill="white"/>
<ellipse cx="317.267" cy="464.592" rx="7.77323" ry="15.6651" transform="rotate(-23.8064 317.267 464.592)" fill="white"/>
<ellipse cx="327.935" cy="472.86" rx="14.3624" ry="8.52278" transform="rotate(-90.7203 327.935 472.86)" fill="#212D0B"/>
<ellipse cx="328.119" cy="482.371" rx="7.24931" ry="7.86974" transform="rotate(-129.587 328.119 482.371)" fill="white"/>
<ellipse cx="334.534" cy="483.212" rx="4.31852" ry="5.14559" transform="rotate(-129.587 334.534 483.212)" fill="#C50705"/>
<ellipse cx="322.281" cy="483.393" rx="4.31852" ry="5.14559" transform="rotate(-42.5784 322.281 483.393)" fill="#C50705"/>
</svg>
