<svg width="951" height="372" viewBox="0 0 951 372" fill="none" xmlns="http://www.w3.org/2000/svg">
<path d="M89.929 288.077V287.568H92.9013C93.1277 287.455 93.3117 287.271 93.4533 287.016C93.5948 286.761 93.6656 286.478 93.6656 286.167V260.266C93.6656 259.954 93.5948 259.671 93.4533 259.417C93.3117 259.162 93.1277 258.978 92.9013 258.865H89.929V258.355H101.181C105.003 258.355 107.833 259.049 109.673 260.436C111.513 261.823 112.433 263.705 112.433 266.083C112.433 268.715 111.457 270.782 109.503 272.282C107.55 273.782 104.96 274.533 101.733 274.533H97.8692V286.124C97.8692 286.436 97.9399 286.733 98.0815 287.016C98.223 287.271 98.407 287.455 98.6334 287.568H102.285V288.077H89.929ZM101.181 274.023C103.332 274.023 105.003 273.358 106.191 272.027C107.409 270.697 108.017 268.871 108.017 266.55C108.017 264.2 107.394 262.346 106.149 260.988C104.903 259.601 103.148 258.907 100.884 258.907H97.8692V274.023H101.181ZM221.348 279.798L221.73 279.925C220.88 282.558 220.328 285.275 220.074 288.077H196.933V287.568H199.905C200.131 287.455 200.315 287.271 200.457 287.016C200.598 286.761 200.669 286.478 200.669 286.167V260.266C200.669 259.954 200.598 259.671 200.457 259.417C200.315 259.162 200.131 258.978 199.905 258.865H196.933V258.355H219.097C219.182 260.931 219.479 263.493 219.989 266.04L219.564 266.125L215.318 258.907H204.873V272.537H211.115C211.511 272.537 211.851 272.452 212.134 272.282C212.445 272.084 212.671 271.857 212.813 271.603L212.898 267.102H213.322V278.481H212.898L212.813 273.981C212.671 273.726 212.445 273.513 212.134 273.344C211.851 273.145 211.511 273.046 211.115 273.046H204.873V287.525H216.252L221.348 279.798ZM320.493 288.544C317.747 288.544 315.298 287.922 313.147 286.676C310.996 285.402 309.311 283.605 308.094 281.284C306.877 278.963 306.268 276.245 306.268 273.131C306.268 270.159 306.863 267.527 308.052 265.234C309.241 262.912 310.925 261.115 313.105 259.841C315.313 258.539 317.86 257.888 320.747 257.888C323.097 257.888 325.206 258.327 327.074 259.204C328.971 260.053 330.485 261.299 331.617 262.941C332.778 264.583 333.429 266.536 333.571 268.8L329.452 269.437C329.31 265.871 328.489 263.153 326.989 261.285C325.517 259.388 323.408 258.44 320.663 258.44C317.577 258.44 315.171 259.643 313.444 262.049C311.746 264.427 310.897 267.654 310.897 271.73C310.897 274.759 311.392 277.406 312.383 279.67C313.402 281.906 314.803 283.633 316.586 284.85C318.37 286.039 320.408 286.634 322.701 286.634C325.475 286.634 327.81 285.742 329.707 283.959C331.631 282.147 332.976 279.571 333.74 276.231L334.292 276.316C333.415 280.251 331.773 283.279 329.367 285.402C326.989 287.497 324.031 288.544 320.493 288.544ZM424.184 288.077V287.568H427.836C428.063 287.455 428.247 287.271 428.388 287.016C428.53 286.733 428.6 286.436 428.6 286.124V258.907H422.019L417.985 266.295L417.561 266.21C418.098 263.238 418.353 260.62 418.325 258.355H443.122C443.094 260.62 443.348 263.238 443.886 266.21L443.462 266.295L439.428 258.907H432.804V286.124C432.804 286.407 432.875 286.69 433.016 286.973C433.158 287.256 433.342 287.455 433.568 287.568H437.22V288.077H424.184ZM542.807 288.544C539.92 288.544 537.344 287.908 535.079 286.634C532.843 285.36 531.102 283.577 529.857 281.284C528.611 278.963 527.988 276.316 527.988 273.344C527.988 270.315 528.625 267.64 529.899 265.319C531.173 262.969 532.942 261.143 535.207 259.841C537.499 258.539 540.118 257.888 543.062 257.888C545.949 257.888 548.511 258.525 550.747 259.799C553.012 261.073 554.767 262.87 556.012 265.191C557.258 267.484 557.88 270.117 557.88 273.089C557.88 276.118 557.244 278.807 555.97 281.156C554.696 283.478 552.913 285.289 550.62 286.591C548.355 287.893 545.751 288.544 542.807 288.544ZM542.934 287.992C546.218 287.992 548.751 286.733 550.535 284.213C552.318 281.666 553.21 278.057 553.21 273.386C553.21 268.602 552.318 264.922 550.535 262.346C548.751 259.742 546.218 258.44 542.934 258.44C539.651 258.44 537.117 259.714 535.334 262.261C533.551 264.781 532.659 268.376 532.659 273.046C532.659 277.83 533.551 281.524 535.334 284.129C537.117 286.705 539.651 287.992 542.934 287.992ZM643.4 288.077V287.568H646.372C646.598 287.455 646.782 287.271 646.924 287.016C647.065 286.761 647.136 286.478 647.136 286.167V260.266C647.136 259.954 647.065 259.671 646.924 259.417C646.782 259.162 646.598 258.978 646.372 258.865H643.4V258.355H654.652C658.473 258.355 661.304 259.049 663.144 260.436C664.984 261.823 665.904 263.705 665.904 266.083C665.904 268.715 664.927 270.782 662.974 272.282C661.021 273.782 658.431 274.533 655.204 274.533H651.34V286.124C651.34 286.436 651.41 286.733 651.552 287.016C651.694 287.271 651.878 287.455 652.104 287.568H655.756V288.077H643.4ZM654.652 274.023C656.803 274.023 658.473 273.358 659.662 272.027C660.879 270.697 661.488 268.871 661.488 266.55C661.488 264.2 660.865 262.346 659.619 260.988C658.374 259.601 656.619 258.907 654.354 258.907H651.34V274.023H654.652ZM773.011 287.568H775.05V288.077H762.057V287.568H766.515C767.109 287.256 767.407 286.676 767.407 285.827C767.407 285.289 767.279 284.709 767.025 284.086L764.562 278.142H752.843L750.55 284.086C750.295 284.709 750.168 285.289 750.168 285.827C750.168 286.676 750.479 287.256 751.102 287.568H755.56V288.077H746.474V287.568H748.554L760.061 258.143H760.528L773.011 287.568ZM758.532 263.45L753.055 277.632H764.35L758.532 263.45ZM885.281 258.865C885.054 258.978 884.87 259.176 884.729 259.459C884.587 259.714 884.516 259.983 884.516 260.266V286.167C884.516 286.45 884.587 286.733 884.729 287.016C884.87 287.271 885.054 287.455 885.281 287.568H888.253V288.077H876.576V287.568H879.548C879.775 287.455 879.959 287.271 880.1 287.016C880.242 286.761 880.313 286.478 880.313 286.167V273.004H866.301V286.167C866.301 286.478 866.372 286.761 866.513 287.016C866.655 287.271 866.839 287.455 867.065 287.568H870.037V288.077H858.361V287.568H861.333C861.559 287.455 861.743 287.271 861.885 287.016C862.026 286.761 862.097 286.478 862.097 286.167V260.266C862.097 259.954 862.026 259.671 861.885 259.417C861.743 259.162 861.559 258.978 861.333 258.865H858.361V258.355H870.037V258.865H867.065C866.839 258.978 866.655 259.162 866.513 259.417C866.372 259.671 866.301 259.954 866.301 260.266V272.494H880.313V260.266C880.313 259.954 880.242 259.671 880.1 259.417C879.959 259.162 879.775 258.978 879.548 258.865H876.576V258.355H888.253V258.865H885.281Z" fill="#BDE22F"/>
<path d="M105.753 45.2921L100.426 206.945" stroke="#BDE22F" stroke-width="13.0166" stroke-miterlimit="10"/>
<path d="M71.2868 76.7146L18.8359 41.2983L182.01 45.2904L148.604 80.1402" stroke="#BDE22F" stroke-width="11.108" stroke-miterlimit="10"/>
<path d="M193.822 62.1617L326.02 39.7332L292.202 84.0237" stroke="#BDE22F" stroke-width="12.9205" stroke-miterlimit="10"/>
<path d="M231.856 58.8575L217.672 198.243" stroke="#BDE22F" stroke-width="12.9205" stroke-miterlimit="10"/>
<path d="M237.141 132.32L276.039 133.844" stroke="#BDE22F" stroke-width="12.9205" stroke-miterlimit="10"/>
<path d="M201.992 203.258L300.262 201.464L274.243 171.726" stroke="#BDE22F" stroke-width="12.9205" stroke-miterlimit="10"/>
<path d="M355.703 206.942L360.509 36.7116C360.509 36.7116 449.03 32.5172 458.092 46.6648C467.154 60.8124 390.373 92.7626 385.032 93.2751" stroke="#BDE22F" stroke-width="12.4674" stroke-miterlimit="10"/>
<path d="M497.514 27.7449L479.266 213.107" stroke="#BDE22F" stroke-width="13.1264" stroke-miterlimit="10"/>
<path d="M504.215 115.179L544.624 96.7157L553.164 21.5943L544.377 208.278" stroke="#BDE22F" stroke-width="13.1264" stroke-miterlimit="10"/>
<path d="M599.568 113.748C614.576 92.2098 629.597 70.6849 644.605 49.1465L623.116 215.034L716.786 32.0048L710.306 207.751" stroke="#BDE22F" stroke-width="12.8244" stroke-miterlimit="10"/>
<path d="M765.312 111.927C780.965 90.0385 796.618 68.1629 812.271 46.2739L789.863 214.859L887.528 28.8489L880.759 207.454" stroke="#BDE22F" stroke-width="13.1951" stroke-miterlimit="10"/>
</svg>
