<svg width="300" height="106" viewBox="0 0 300 106" fill="none" xmlns="http://www.w3.org/2000/svg">
<g clip-path="url(#clip0_56_666)">
<path d="M253.028 96.1138C246.023 96.1138 241.406 92.0791 241.406 85.3287C241.406 76.4834 246.978 72.9142 264.967 72.9142V72.6814C264.967 66.7845 262.42 64.3016 257.007 64.3016C252.629 64.3016 249.764 65.3879 245.864 69.8881L242.123 65.931C246.659 60.9652 250.879 59.103 257.406 59.103C269.344 59.103 270.778 66.9397 270.778 72.6039V95.1827H264.967V89.7513C261.942 93.7861 257.724 96.1138 253.028 96.1138ZM253.823 91.0703C257.724 91.0703 260.987 88.9755 264.967 83.001V77.6472C251.197 77.6472 247.216 79.5094 247.216 85.3287C247.216 89.5185 249.685 91.0703 253.823 91.0703Z" fill="#BDE22F"/>
<path d="M207.365 95.1847H201.555V60.1138H207.365V74.3904H227.264V60.1138H233.075V95.1847H227.264V79.6666H207.365V95.1847Z" fill="#BDE22F"/>
<path d="M191.672 95.1847H185.861V68.8815L165.167 95.1847H159.834V60.1138H165.644V86.1842L186.26 60.1138H191.672V95.1847Z" fill="#BDE22F"/>
<path d="M131.83 96.1138C124.826 96.1138 120.209 92.0791 120.209 85.3287C120.209 76.4834 125.781 72.9142 143.77 72.9142V72.6814C143.77 66.7845 141.222 64.3016 135.809 64.3016C131.433 64.3016 128.567 65.3879 124.666 69.8881L120.925 65.931C125.463 60.9652 129.681 59.103 136.208 59.103C148.148 59.103 149.58 66.9397 149.58 72.6039V95.1827H143.77V89.7513C140.744 93.7861 136.526 96.1138 131.83 96.1138ZM132.626 91.0703C136.526 91.0703 139.79 88.9755 143.77 83.001V77.6472C129.999 77.6472 126.02 79.5094 126.02 85.3287C126.02 89.5185 128.487 91.0703 132.626 91.0703Z" fill="#BDE22F"/>
<path d="M99.57 90.9168C104.903 90.9168 107.53 87.813 107.53 84.4767C107.53 81.3731 104.505 79.5885 100.525 79.5885H95.6697V74.3899H100.525C104.107 74.3899 106.415 72.295 106.415 69.4242C106.415 66.3981 104.505 64.4583 100.605 64.4583C95.9086 64.4583 94.0779 65.855 90.5755 69.812C90.496 69.7344 86.6754 66.1653 86.6754 66.1653C90.8144 61.1219 94.8738 59.1821 100.605 59.1821C108.007 59.1821 112.066 63.6048 112.066 68.7258C112.066 72.4502 110.236 75.0883 107.37 76.7953C111.111 78.4247 113.34 81.2179 113.34 84.8646C113.34 90.5288 108.803 96.2705 99.57 96.2705C94.237 96.2705 90.3368 94.7963 85.6406 89.7528L89.5409 86.0285C93.3615 89.7528 95.3513 90.9168 99.57 90.9168Z" fill="#BDE22F"/>
<path d="M46.5039 60.1138H52.3144V86.1842L72.9298 60.1138H78.3423V95.1847H72.5319V68.8815L51.8368 95.1847H46.5039V60.1138Z" fill="#BDE22F"/>
<path d="M5.57173 95.1847V105.427H0V89.9085H4.45738C9.63112 81.684 9.63112 69.3471 9.63112 60.1138H34.7834V89.9085H39.9573V105.427H34.3855V95.1847H5.57173ZM28.973 89.9085V65.3899H15.4417C15.4417 73.7697 14.4865 82.1495 10.9047 89.9085H28.973Z" fill="#BDE22F"/>
<path d="M183.439 37.0097C176.434 37.0097 171.818 32.9751 171.818 26.2246C171.818 17.3793 177.389 13.8101 195.378 13.8101V13.5773C195.378 7.68049 192.832 5.19759 187.419 5.19759C183.041 5.19759 180.175 6.28386 176.275 10.7841L172.534 6.827C177.071 1.8612 181.29 -0.000976562 187.817 -0.000976562C199.756 -0.000976562 201.189 7.83568 201.189 13.4998V36.0787H195.378V30.6473C192.354 34.6821 188.135 37.0097 183.439 37.0097ZM184.235 31.9663C188.135 31.9663 191.398 29.8714 195.378 23.897V18.5432C181.608 18.5432 177.629 20.4054 177.629 26.2246C177.629 30.4145 180.096 31.9663 184.235 31.9663Z" fill="#BDE22F"/>
<path d="M129.449 36.0026V30.4161C130.165 30.7265 131.199 30.8041 131.836 30.8041C137.409 30.8041 138.921 22.5019 138.921 1.00928H163.516V36.0802H157.705V6.28544H144.573C144.573 26.5365 141.627 36.3906 132.553 36.3906C131.519 36.3906 130.484 36.2354 129.449 36.0026Z" fill="#BDE22F"/>
<path d="M108.458 5.27519C101.055 5.27519 95.6425 11.2497 95.6425 18.5432C95.6425 25.7591 101.055 31.7335 108.458 31.7335C115.94 31.7335 121.113 25.7591 121.113 18.5432C121.113 11.2497 115.94 5.27519 108.458 5.27519ZM89.832 18.5432C89.832 8.30122 97.9508 -0.000976562 108.458 -0.000976562C118.964 -0.000976562 126.924 8.30122 126.924 18.5432C126.924 28.7075 118.964 37.0097 108.458 37.0097C97.9508 37.0097 89.832 28.7075 89.832 18.5432Z" fill="#BDE22F"/>
<path d="M55.752 36.0802V1.00928H61.5624V15.286H64.4279L78.5164 1.00928H85.68L69.3629 17.6136C74.5366 19.7086 78.0389 30.8816 84.2474 30.8816C84.9636 30.8816 85.68 30.7265 86.476 30.4161V36.0802C85.2821 36.3906 84.1677 36.5458 83.2126 36.5458C73.5814 36.5458 70.9548 23.8209 64.9055 20.5621H61.5624V36.0802H55.752Z" fill="#BDE22F"/>
<path d="M20.4317 30.8041V1.00928H26.2421V30.8041H39.7736V1.00928H45.584V36.0802H1.08984V1.00928H6.90035V30.8041H20.4317Z" fill="#BDE22F"/>
<path d="M288.131 52.9556C294.642 52.9556 299.933 58.1024 300.001 64.5027C300.001 70.9032 294.642 76.0498 288.131 76.0498C281.552 76.0498 276.262 70.8371 276.262 64.5027C276.262 58.1024 281.62 52.9556 288.131 52.9556ZM283.926 56.5187V71.959H293.557V69.0556C293.557 66.2183 292.608 64.3048 290.167 63.447C290.98 63.1831 291.387 62.6551 291.726 62.3252C292.269 61.6654 292.541 60.8736 292.541 60.0819C292.541 59.4221 292.336 58.2342 291.252 57.3765C290.505 56.7826 289.827 56.5187 288.199 56.5187H283.926ZM287.661 57.3118C288.271 57.3118 289.154 57.3777 289.764 58.1695C290.103 58.4994 290.307 59.0273 290.375 59.5551H287.593V60.347H290.375C290.375 60.8748 290.239 61.4028 289.764 61.9965C289.289 62.5245 288.611 62.9863 287.593 62.9863V63.7782C290.307 63.7782 291.323 65.5597 291.392 68.7929V71.1683H289.629V66.0215H287.661V71.1683H286.102V57.3118H287.661Z" fill="#BDE22F"/>
<path d="M175.442 53.6724C169.233 53.6724 164.537 51.8102 161.354 46.3013L165.97 43.0425C168.438 47.2324 170.587 48.4738 175.442 48.4738C180.298 48.4738 182.447 47.2324 184.914 43.0425L189.53 46.3013C186.346 51.8102 181.65 53.6724 175.442 53.6724Z" fill="#BDE22F"/>
</g>
<defs>
<clipPath id="clip0_56_666">
<rect width="300" height="105.426" fill="white"/>
</clipPath>
</defs>
</svg>
