<svg width="453" height="454" viewBox="0 0 453 454" fill="none" xmlns="http://www.w3.org/2000/svg">
<path d="M166.104 5.84638L192.325 48.2479L176.709 54.5596L166.104 5.84638Z" fill="white"/>
<path d="M297.568 15.912L291.484 60.5364L270.014 51.5367L297.568 15.912Z" fill="white"/>
<path d="M255.908 11.9918L268.512 54.4069L252.471 56.1063L255.908 11.9918Z" fill="white"/>
<path d="M203.787 5.38534L216.391 47.8005L200.349 49.4998L203.787 5.38534Z" fill="white"/>
<path d="M238.659 42.9917L223.878 43.9611L228.653 3.60992L238.659 42.9917Z" fill="black" stroke="#737373" stroke-width="1.09593"/>
<path d="M78.444 68.9268L117.433 91.4699L100.967 107.927L78.444 68.9268Z" fill="white"/>
<path d="M141.171 71.7696L124.349 85.717L106.695 47.3055L141.171 71.7696Z" fill="black" stroke="#737373" stroke-width="1.09593"/>
<path d="M139.411 29.1471L168.283 63.7124L147.165 73.5116L139.411 29.1471Z" fill="white"/>
<path d="M328.242 31.2848L319.066 75.3772L298.274 64.9043L328.242 31.2848Z" fill="white"/>
<path d="M357.489 50.3459L341.457 92.4329L322.583 78.8045L357.489 50.3459Z" fill="white"/>
<path d="M415.407 132.04L380.762 160.816L371.021 139.671L415.407 132.04Z" fill="white"/>
<path d="M451.721 241.612L398.803 249.303L399.412 230.511L451.721 241.612Z" fill="white"/>
<path d="M398.658 188.345L394.348 166.922L436.538 169.578L398.658 188.345Z" fill="black" stroke="#737373" stroke-width="1.09593"/>
<path d="M352.842 108.713L342.183 94.9584L385.36 72.505L352.842 108.713Z" fill="black" stroke="#737373" stroke-width="1.09593"/>
<path d="M405.84 101.343L373.835 131.897L365.009 118.395L405.84 101.343Z" fill="white"/>
<path d="M451.143 203.984L408.229 214.771L407.214 198.672L451.143 203.984Z" fill="white"/>
<path d="M449.145 272.812L404.904 272.001L408.134 256.197L449.145 272.812Z" fill="white"/>
<path d="M396.523 294.202L402.312 280.567L436.192 302.998L396.523 294.202Z" fill="black" stroke="#737373" stroke-width="1.09593"/>
<path d="M439.905 343.019L388.434 323.59L396.282 309.497L439.905 343.019Z" fill="white"/>
<path d="M404.095 354.181L363.831 335.832L373.084 322.618L404.095 354.181Z" fill="white"/>
<path d="M393.85 382.967L357.753 357.663L367.675 347.496L393.85 382.967Z" fill="white"/>
<path d="M56.0628 92.0246L97.2426 110.261L82.6347 128.388L56.0628 92.0246Z" fill="white"/>
<path d="M73.1472 139.273L63.6853 154.492L23.5741 119.002L73.1472 139.273Z" fill="black" stroke="#737373" stroke-width="1.09593"/>
<path d="M22.4994 171.393L66.4103 178.488L59.72 195.747L22.4994 171.393Z" fill="white"/>
<path d="M14.3061 206.547L58.1695 201.467L57.3179 216.537L14.3061 206.547Z" fill="white"/>
<path d="M7.19032 236.791L50.8474 228.209L50.5347 246.834L7.19032 236.791Z" fill="white"/>
<path d="M19.8296 271.65L57.0722 247.022L64.0959 265.819L19.8296 271.65Z" fill="white"/>
<path d="M52.1071 288.027L57.3364 302.021L6.82378 312.922L52.1071 288.027Z" fill="black" stroke="#737373" stroke-width="1.09593"/>
<path d="M39.397 334.338L73.9145 306.017L82.8309 323.994L39.397 334.338Z" fill="white"/>
<path d="M64.2299 363.681L93.4192 329.895L105.267 346.09L64.2299 363.681Z" fill="white"/>
<path d="M106.116 359.715L121.085 370.906L89.3378 397.764L106.116 359.715Z" fill="black" stroke="#737373" stroke-width="1.09593"/>
<path d="M115.698 420.687L130.303 378.494L147.305 389.151L115.698 420.687Z" fill="white"/>
<path d="M146.821 435.138L156.069 391.458L174.264 399.919L146.821 435.138Z" fill="white"/>
<path d="M172.225 444.756L176.522 400.314L195.55 406.684L172.225 444.756Z" fill="white"/>
<path d="M200.298 408.639L218.898 410.467L205.635 449.879L200.298 408.639Z" fill="black" stroke="#737373" stroke-width="1.09593"/>
<path d="M237.774 451.974L225.803 408.96L245.849 408.061L237.774 451.974Z" fill="white"/>
<path d="M273.383 450.794L254.857 410.17L274.518 406.159L273.383 450.794Z" fill="white"/>
<path d="M308.715 439.555L285.747 401.266L304.834 395.075L308.715 439.555Z" fill="white"/>
<path d="M347.237 421.997L313.582 392.657L329.83 380.882L347.237 421.997Z" fill="white"/>
<path d="M329.264 369.061L347.682 352.667L374.017 400.796L329.264 369.061Z" fill="black" stroke="#737373" stroke-width="1.09593"/>
<path d="M162.173 320.464C165.421 328.811 175.178 342.071 188.221 328.332C201.264 314.592 212.848 325.825 217.01 333.159C222.2 339.746 235.633 347.649 247.846 326.561C260.059 305.472 273.589 318.549 278.828 327.724" stroke="#A30200" stroke-width="7.93715"/>
<path d="M177.278 155.015C178.059 160.416 182.429 169.094 193.662 160.597C204.894 152.101 210.856 159.523 212.432 164.296C214.837 168.614 222.628 173.948 234.554 160.741C246.48 147.533 253.45 156.174 255.445 162.146" stroke="#A30200" stroke-width="7.93714"/>
<ellipse cx="228.647" cy="230.184" rx="187.184" ry="192.476" transform="rotate(-0.415182 228.647 230.184)" fill="#BDE22F"/>
<ellipse cx="228.648" cy="230.183" rx="171.31" ry="175.279" transform="rotate(-0.415182 228.648 230.183)" fill="black"/>
<path d="M200.033 310.858C204.891 302.578 214.65 309 218.922 313.246C237.728 333.558 208.331 357.001 195.134 353.782C184.992 351.309 165.811 336.575 160.805 324.361C164.264 327.357 178.363 331.187 186.62 333.713C196.941 336.872 193.959 321.207 200.033 310.858Z" fill="#CBD356"/>
<path d="M162.875 306.109C161.144 302.144 157.194 295.514 155.247 300.719C152.813 307.225 161.99 311.35 162.875 306.109Z" fill="#CBD356"/>
<path d="M271.711 293.835L276.075 289.471C266.215 256.013 246.399 187.838 246.012 182.795C245.624 177.753 235.182 175.522 230.01 175.037C218.373 159.909 202.533 167.117 196.068 172.613C181.715 168.734 175.541 177.785 174.248 182.795C174.248 184.573 170.369 190.263 154.853 198.797C139.336 207.331 144.832 223.041 149.519 229.83C152.428 230.961 158.441 234.097 159.217 237.588C159.993 241.079 166.005 243.245 168.914 243.891C170.046 249.872 173.666 261.541 179.097 260.378C184.528 259.214 190.088 264.418 192.189 267.166C197.038 285.107 202.857 286.561 205.766 289.471C208.093 291.798 216.11 291.734 219.828 291.41L225.161 289.471L230.01 293.835L235.344 299.169H241.648H250.861L256.679 297.229H265.407L271.711 293.835Z" fill="#7FAF25"/>
<path d="M307.909 305.999L293.847 313.757C287.544 311.171 274.937 304.059 274.937 296.301C274.937 288.543 266.208 285.634 261.844 285.149C268.795 284.825 278.137 284.373 259.905 285.149C241.673 285.924 238.085 273.835 238.57 267.693C229.648 260.71 225.155 248.944 224.023 243.933C220.629 243.448 213.647 241.121 212.871 235.69C211.901 228.902 208.507 230.841 205.597 223.568C203.27 217.749 206.567 214.355 208.507 213.385C207.699 212.739 205.985 210.088 205.597 204.657C205.21 199.227 213.517 193.99 217.72 192.05C221.599 185.068 226.771 183.969 228.872 184.292C243.419 176.534 249.237 182.352 249.722 184.292C250.207 186.231 258.45 188.171 261.844 187.686C264.56 187.298 267.501 193.343 268.633 196.414L279.785 200.778L285.119 213.385L290.453 219.689C299.375 222.404 299.019 233.75 297.726 239.084C303.545 242.187 305.646 248.135 305.969 250.722C302.09 268.953 304.353 272.865 305.969 272.541C312.952 283.015 308.879 295.654 305.969 300.665L307.909 305.999Z" fill="#466B01"/>
<path d="M234.911 183.657C236.465 182.7 240.874 177.521 242.111 175.824C243.767 173.553 245.443 171.122 246.251 168.414L248.281 168.665C248.384 169.2 248.599 169.748 248.406 170.301C247.575 172.717 242.826 178.719 241.22 181.508C239.981 183.656 238.581 185.79 237.886 188.207C243.862 194.139 247.13 202.135 249.47 210.111C250.823 214.716 251.237 219.913 252.533 224.186C254.938 232.114 256.609 234.143 256.536 243.338C256.492 248.941 256.33 248.975 257.201 254.441C258.212 260.8 256.811 265.898 253.891 271.576C251.373 276.466 246.258 279.524 241.251 281.441C236.101 283.412 236.028 282.506 231.19 285.923C226.351 289.341 220.886 289.946 217.872 284.167C217.278 283.028 217.023 280.815 216.378 280.006C214.265 277.374 209.081 275.652 205.815 270.816C193.158 252.06 203.013 230.455 219.627 218.366C220.463 217.756 223.737 216.261 223.88 216.072C225.045 214.524 223.571 205.345 223.537 202.751C223.495 199.607 224.824 193.069 223.835 190.412C220.404 186.47 216.757 182.653 213.055 178.971C212.071 177.995 206.512 173.404 206.48 172.959C206.438 172.465 207.099 171.774 207.459 171.726C209.288 171.494 223.094 186.013 227.263 185.374C228.167 185.235 229.144 184.191 230.113 184.011C231.66 183.734 233.498 184.532 234.923 183.653L234.911 183.657Z" fill="white"/>
<ellipse cx="4.37627" cy="5.2144" rx="4.37627" ry="5.2144" transform="matrix(0.619329 0.785136 -0.785597 0.618732 208.336 166.007)" fill="#FD2927"/>
<ellipse cx="4.37627" cy="5.2144" rx="4.37627" ry="5.2144" transform="matrix(0.808584 -0.588387 0.587772 0.809022 241.756 169.393)" fill="#FD2927"/>
<path d="M212.637 245.231C217.859 229.004 234.88 231.709 242.737 235.09C242.683 236.241 242.246 238.607 240.932 238.871C239.289 239.201 233.731 234.504 225.945 239.143C218.158 243.782 220.136 253.64 219.774 254.397C219.451 255.073 224.371 270.291 234.835 266.417C245.298 262.544 242.09 253.168 235.908 247.058C229.725 240.948 225.554 246.571 224.733 246.736C223.911 246.901 227.784 237.235 237.978 245.446C248.171 253.657 247.75 263.485 238.945 269.866C230.099 276.277 206.108 265.513 212.637 245.231Z" fill="#7FAF25"/>
<path d="M176.957 188.822L282.243 197.354C300.611 206.44 305.061 224.353 175.913 223.31C150.062 237.016 141.45 244.5 279.55 255.81C302.516 262.412 307.366 286.679 166.966 284.937" stroke="#C50705" stroke-width="5.47963"/>
<path d="M183.588 315.663C184.647 312.216 185.034 305.575 178.109 306.581C169.454 307.839 173.131 324.202 183.588 315.663Z" fill="#CBD356"/>
<path d="M264.514 149.09C256.066 153.652 251.051 143.101 249.6 137.255C244.048 110.137 281.339 105.33 290.956 114.924C298.346 122.297 307.11 144.841 305.059 157.88C303.654 153.525 293.583 142.94 287.832 136.499C280.643 128.448 275.073 143.389 264.514 149.09Z" fill="#CBD356"/>
<path d="M293.828 172.414C293.253 176.702 293.194 184.419 297.557 180.978C303.011 176.676 297.302 168.391 293.828 172.414Z" fill="#CBD356"/>
<path d="M281.066 153.507C278.374 155.905 274.601 161.384 281.043 164.114C289.097 167.525 294.435 151.627 281.066 153.507Z" fill="#CBD356"/>
</svg>
