<svg width="453" height="454" viewBox="0 0 453 454" fill="none" xmlns="http://www.w3.org/2000/svg">
<path d="M166.104 5.84663L192.325 48.2481L176.709 54.5599L166.104 5.84663Z" fill="white"/>
<path d="M297.564 15.9115L291.48 60.5359L270.01 51.5362L297.564 15.9115Z" fill="white"/>
<path d="M255.906 11.992L268.51 54.4072L252.469 56.1065L255.906 11.992Z" fill="white"/>
<path d="M203.787 5.38534L216.391 47.8005L200.349 49.4998L203.787 5.38534Z" fill="white"/>
<path d="M238.659 42.9919L223.878 43.9614L228.653 3.61017L238.659 42.9919Z" fill="black" stroke="#737373" stroke-width="1.09593"/>
<path d="M78.444 68.9266L117.433 91.4696L100.967 107.927L78.444 68.9266Z" fill="white"/>
<path d="M141.171 71.77L124.349 85.7174L106.695 47.3058L141.171 71.77Z" fill="black" stroke="#737373" stroke-width="1.09593"/>
<path d="M139.411 29.1475L168.283 63.7128L147.165 73.512L139.411 29.1475Z" fill="white"/>
<path d="M328.238 31.2856L319.062 75.3779L298.27 64.905L328.238 31.2856Z" fill="white"/>
<path d="M357.483 50.3466L341.451 92.4336L322.577 78.8052L357.483 50.3466Z" fill="white"/>
<path d="M415.403 132.039L380.758 160.815L371.017 139.671L415.403 132.039Z" fill="white"/>
<path d="M451.717 241.612L398.799 249.303L399.408 230.51L451.717 241.612Z" fill="white"/>
<path d="M398.654 188.345L394.344 166.922L436.535 169.578L398.654 188.345Z" fill="black" stroke="#737373" stroke-width="1.09593"/>
<path d="M352.838 108.713L342.179 94.9579L385.356 72.5045L352.838 108.713Z" fill="black" stroke="#737373" stroke-width="1.09593"/>
<path d="M405.834 101.342L373.829 131.896L365.003 118.394L405.834 101.342Z" fill="white"/>
<path d="M451.137 203.984L408.223 214.771L407.209 198.672L451.137 203.984Z" fill="white"/>
<path d="M449.141 272.816L404.9 272.005L408.13 256.201L449.141 272.816Z" fill="white"/>
<path d="M396.519 294.206L402.308 280.571L436.188 303.002L396.519 294.206Z" fill="black" stroke="#737373" stroke-width="1.09593"/>
<path d="M439.901 343.024L388.43 323.595L396.278 309.502L439.901 343.024Z" fill="white"/>
<path d="M404.091 354.185L363.827 335.836L373.08 322.622L404.091 354.185Z" fill="white"/>
<path d="M393.844 382.97L357.747 357.666L367.669 347.5L393.844 382.97Z" fill="white"/>
<path d="M56.0589 92.0243L97.2387 110.261L82.6308 128.387L56.0589 92.0243Z" fill="white"/>
<path d="M73.1433 139.273L63.6814 154.491L23.5702 119.002L73.1433 139.273Z" fill="black" stroke="#737373" stroke-width="1.09593"/>
<path d="M22.4994 171.391L66.4103 178.486L59.72 195.746L22.4994 171.391Z" fill="white"/>
<path d="M14.3061 206.546L58.1695 201.466L57.3179 216.536L14.3061 206.546Z" fill="white"/>
<path d="M7.18641 236.79L50.8435 228.207L50.5308 246.833L7.18641 236.79Z" fill="white"/>
<path d="M19.8276 271.654L57.0702 247.027L64.094 265.823L19.8276 271.654Z" fill="white"/>
<path d="M52.1071 288.031L57.3364 302.025L6.82378 312.926L52.1071 288.031Z" fill="black" stroke="#737373" stroke-width="1.09593"/>
<path d="M39.397 334.341L73.9145 306.02L82.8309 323.996L39.397 334.341Z" fill="white"/>
<path d="M64.2299 363.686L93.4192 329.9L105.267 346.094L64.2299 363.686Z" fill="white"/>
<path d="M106.115 359.72L121.083 370.911L89.3359 397.769L106.115 359.72Z" fill="black" stroke="#737373" stroke-width="1.09593"/>
<path d="M115.698 420.692L130.303 378.5L147.305 389.157L115.698 420.692Z" fill="white"/>
<path d="M146.819 435.143L156.067 391.462L174.262 399.923L146.819 435.143Z" fill="white"/>
<path d="M172.223 444.761L176.521 400.319L195.549 406.689L172.223 444.761Z" fill="white"/>
<path d="M200.298 408.643L218.898 410.471L205.635 449.883L200.298 408.643Z" fill="black" stroke="#737373" stroke-width="1.09593"/>
<path d="M237.774 451.978L225.803 408.964L245.849 408.066L237.774 451.978Z" fill="white"/>
<path d="M273.379 450.799L254.853 410.175L274.514 406.165L273.379 450.799Z" fill="white"/>
<path d="M308.709 439.56L285.741 401.271L304.828 395.08L308.709 439.56Z" fill="white"/>
<path d="M347.231 422.002L313.576 392.662L329.824 380.887L347.231 422.002Z" fill="white"/>
<path d="M329.26 369.065L347.678 352.671L374.013 400.801L329.26 369.065Z" fill="black" stroke="#737373" stroke-width="1.09593"/>
<path d="M162.173 320.469C165.421 328.816 175.178 342.076 188.221 328.337C201.264 314.597 212.848 325.83 217.01 333.164C222.2 339.751 235.633 347.654 247.846 326.566C260.059 305.477 273.589 318.554 278.828 327.729" stroke="#A30200" stroke-width="7.93715"/>
<path d="M177.278 155.015C178.059 160.415 182.429 169.093 193.662 160.597C204.894 152.1 210.856 159.522 212.432 164.295C214.837 168.613 222.628 173.948 234.554 160.74C246.48 147.532 253.45 156.174 255.445 162.145" stroke="#A30200" stroke-width="7.93714"/>
<ellipse cx="228.645" cy="230.184" rx="187.184" ry="192.476" transform="rotate(-0.415182 228.645 230.184)" fill="#C50705"/>
<ellipse cx="228.648" cy="230.182" rx="171.31" ry="175.279" transform="rotate(-0.415182 228.648 230.182)" fill="black"/>
<path d="M258.101 264.844L262.465 260.48C252.606 227.022 232.79 158.847 232.402 153.804C232.014 148.761 221.573 146.531 216.401 146.046C204.764 130.917 188.924 138.126 182.459 143.622C168.106 139.742 161.932 148.794 160.639 153.804C160.639 155.582 156.76 161.271 141.243 169.805C125.727 178.34 131.222 194.05 135.91 200.838C138.819 201.97 144.832 205.105 145.607 208.597C146.383 212.088 152.396 214.254 155.305 214.9C156.437 220.88 160.057 232.55 165.488 231.386C170.919 230.223 176.479 235.427 178.58 238.175C183.429 256.116 189.247 257.57 192.157 260.48C194.484 262.807 202.501 262.742 206.218 262.419L211.552 260.48L216.401 264.844L221.735 270.177H228.038H237.251L243.07 268.238H251.798L258.101 264.844Z" fill="#7FAF25"/>
<path d="M294.299 277.008L280.238 284.766C273.934 282.18 261.327 275.068 261.327 267.31C261.327 259.552 252.599 256.642 248.235 256.157C255.185 255.834 264.527 255.382 246.296 256.157C228.064 256.933 224.476 244.843 224.961 238.701C216.039 231.719 211.545 219.952 210.414 214.942C207.02 214.457 200.037 212.13 199.262 206.699C198.292 199.91 194.898 201.85 191.988 194.577C189.66 188.758 192.958 185.364 194.898 184.394C194.089 183.747 192.376 181.097 191.988 175.666C191.6 170.235 199.908 164.999 204.11 163.059C207.989 156.077 213.161 154.977 215.263 155.301C229.809 147.542 235.628 153.361 236.113 155.301C236.598 157.24 244.841 159.18 248.235 158.695C250.95 158.307 253.892 164.352 255.023 167.423L266.176 171.787L271.51 184.394L276.843 190.697C285.765 193.413 285.41 204.759 284.117 210.093C289.935 213.196 292.037 219.144 292.36 221.73C288.481 239.962 290.744 243.874 292.36 243.55C299.342 254.024 295.269 266.663 292.36 271.674L294.299 277.008Z" fill="#466B01"/>
<path d="M240.589 226.829C239.091 227.87 234.977 233.287 233.836 235.05C232.308 237.409 230.77 239.93 230.115 242.679L228.073 242.541C227.941 242.013 227.696 241.477 227.858 240.914C228.553 238.456 232.961 232.199 234.41 229.326C235.527 227.112 236.806 224.903 237.366 222.452C231.069 216.861 227.362 209.058 224.582 201.226C222.975 196.703 222.273 191.536 220.741 187.343C217.898 179.56 216.118 177.628 215.68 168.443C215.412 162.846 215.571 162.803 214.398 157.394C213.035 151.101 214.15 145.933 216.75 140.101C218.992 135.078 223.929 131.741 228.822 129.548C233.854 127.294 233.977 128.195 238.618 124.514C243.259 120.832 248.683 119.925 252.013 125.527C252.669 126.632 253.047 128.827 253.736 129.598C255.992 132.109 261.264 133.54 264.794 138.187C278.475 156.21 269.836 178.329 253.92 191.324C253.119 191.979 249.933 193.654 249.8 193.85C248.724 195.461 250.706 204.544 250.883 207.132C251.1 210.268 250.138 216.87 251.273 219.468C254.917 223.214 258.771 226.822 262.672 230.293C263.709 231.212 269.514 235.487 269.571 235.929C269.641 236.421 269.019 237.147 268.662 237.215C266.849 237.548 252.257 223.82 248.13 224.69C247.235 224.879 246.317 225.975 245.36 226.208C243.831 226.571 241.952 225.877 240.578 226.834L240.589 226.829Z" fill="white"/>
<ellipse cx="4.37627" cy="5.2144" rx="4.37627" ry="5.2144" transform="matrix(-0.662029 -0.749484 0.749977 -0.661458 268.105 242.973)" fill="#FD2927"/>
<ellipse cx="4.37627" cy="5.2144" rx="4.37627" ry="5.2144" transform="matrix(-0.774616 0.632438 -0.631848 -0.775087 234.549 241.451)" fill="#FD2927"/>
<path d="M259.406 164.112C255.093 180.603 237.949 178.849 229.916 175.91C229.906 174.759 230.21 172.371 231.508 172.035C233.13 171.614 238.94 175.995 246.457 170.93C253.974 165.866 251.451 156.132 251.769 155.357C252.054 154.663 246.296 139.743 236.064 144.192C225.832 148.642 229.556 157.825 236.069 163.581C242.582 169.338 246.433 163.492 247.245 163.281C248.056 163.071 244.726 172.937 234.092 165.305C223.458 157.674 223.332 147.838 231.768 140.977C240.245 134.084 264.796 143.497 259.406 164.112Z" fill="#7FAF25"/>
<path d="M235.981 278.756L241.425 281.664C270.576 262.511 330.056 223.747 334.769 221.911C339.481 220.075 338.583 209.436 337.545 204.346C348.641 188.817 337.142 175.754 330.005 171.163C329.548 156.303 319.094 153.024 313.924 153.242C312.223 153.758 305.652 151.699 292.979 139.331C280.306 126.962 266.869 136.784 261.735 143.241C261.497 146.353 260.243 153.017 257.128 154.774C254.012 156.53 253.686 162.913 253.913 165.884C248.519 168.704 238.404 175.558 241.095 180.417C243.786 185.275 240.421 192.107 238.402 194.916C222.643 204.767 222.941 210.757 221.003 214.386C219.452 217.29 221.842 224.942 223.231 228.405L226.636 232.946L223.869 238.853L220.314 245.506L222.145 251.538L224.821 260.354L228.367 265.358L230.903 273.71L235.981 278.756Z" fill="#7FAF25"/>
<path d="M234.856 316.925L223.348 305.723C223.992 298.941 227.135 284.811 234.558 282.558C241.982 280.305 242.231 271.108 241.427 266.791C243.755 273.347 246.902 282.156 240.864 264.935C234.826 247.715 245.352 240.77 251.37 239.45C255.46 228.884 265.414 221.167 269.88 218.629C269.358 215.24 269.557 207.883 274.528 205.563C280.742 202.663 277.901 199.979 284.015 195.082C288.907 191.165 293.113 193.334 294.604 194.908C294.988 193.947 297.027 191.538 302.111 189.589C307.194 187.64 314.619 194.069 317.695 197.527C325.503 199.21 328.057 203.84 328.358 205.945C340.007 217.611 336.13 224.869 334.415 225.896C332.7 226.923 333.238 235.374 334.688 238.481C335.848 240.967 330.918 245.538 328.308 247.512L327.371 259.452L316.857 268.217L312.375 275.152C312.368 284.478 301.407 287.433 295.928 287.745C294.649 294.215 289.567 297.953 287.187 299.013C268.614 300.597 265.529 303.899 266.308 305.351C258.314 315.075 245.036 314.849 239.397 313.52L234.856 316.925Z" fill="#466B01"/>
<path d="M160.174 223.578L156.347 228.421C170.033 260.503 197.648 325.909 198.62 330.872C199.592 335.836 210.222 336.836 215.416 336.716C228.734 350.387 243.628 341.384 249.409 335.174C264.116 337.356 269.195 327.648 269.896 322.521C269.689 320.755 272.88 314.653 287.298 304.371C301.715 294.089 294.429 279.125 288.984 272.929C285.962 272.143 279.626 269.729 278.449 266.352C277.272 262.974 271.048 261.523 268.083 261.219C266.264 255.411 261.31 244.242 256.051 246.03C250.793 247.818 244.665 243.296 242.258 240.812C235.355 223.557 229.406 222.789 226.178 220.238C223.596 218.198 215.641 219.195 211.986 219.948L206.914 222.495L201.591 218.725L195.672 214.049L189.412 214.782L180.261 215.854L174.708 218.458L166.039 219.474L160.174 223.578Z" fill="#7FAF25"/>
<path d="M122.807 215.709L135.87 206.367C142.432 208.202 155.781 213.799 156.683 221.504C157.586 229.209 166.594 231.083 170.984 231.057C164.119 232.187 154.893 233.724 172.911 230.831C190.928 227.939 195.899 239.529 196.132 245.686C205.806 251.583 211.638 262.746 213.345 267.591C216.773 267.678 223.978 269.177 225.381 274.48C227.134 281.11 230.28 278.788 234.016 285.674C237.005 291.182 234.125 294.937 232.311 296.126C233.189 296.674 235.199 299.107 236.216 304.456C237.234 309.804 229.592 315.972 225.644 318.388C222.604 325.774 217.595 327.468 215.47 327.391C201.925 336.79 195.469 331.688 194.762 329.818C194.054 327.948 185.641 326.981 182.327 327.857C179.675 328.559 176.05 322.897 174.569 319.979L162.984 316.942L156.219 305.042L150.188 299.402C141.011 297.743 140.044 286.432 140.707 280.984C134.567 278.579 131.788 272.916 131.166 270.385C132.897 251.826 130.194 248.204 128.627 248.714C120.473 239.124 123.047 226.096 125.354 220.781L122.807 215.709Z" fill="#466B01"/>
<path d="M195.526 252.611C194.878 250.905 190.618 245.603 189.183 244.07C187.264 242.017 185.19 239.914 182.682 238.613L183.309 236.665C183.854 236.665 184.433 236.556 184.94 236.85C187.157 238.12 192.161 243.911 194.599 246.011C196.476 247.631 198.31 249.407 200.553 250.543C207.501 245.786 215.969 244.077 224.242 243.275C229.019 242.811 234.202 243.379 238.641 242.908C246.881 242.033 249.186 240.773 258.204 242.57C263.7 243.665 263.703 243.83 269.235 244C275.671 244.2 280.416 246.533 285.445 250.467C289.776 253.857 291.819 259.455 292.763 264.733C293.732 270.161 292.828 270.063 295.277 275.457C297.727 280.851 297.295 286.333 291.053 288.209C289.822 288.578 287.601 288.413 286.686 288.896C283.704 290.477 281.04 295.246 275.677 297.546C254.879 306.459 235.507 292.725 226.75 274.138C226.308 273.201 225.454 269.705 225.295 269.529C223.993 268.094 214.701 267.82 212.147 267.366C209.051 266.817 202.878 264.286 200.083 264.758C195.567 267.388 191.133 270.254 186.821 273.2C185.679 273.983 180.126 278.582 179.683 278.53C179.189 278.479 178.635 277.699 178.655 277.337C178.771 275.497 195.622 264.661 195.777 260.446C195.81 259.532 194.968 258.376 194.974 257.391C194.992 255.82 196.12 254.164 195.524 252.599L195.526 252.611Z" fill="white"/>
<ellipse cx="4.37627" cy="5.2144" rx="4.37627" ry="5.2144" transform="matrix(0.887407 -0.460996 0.460322 0.887748 173.203 275.403)" fill="#FD2927"/>
<ellipse cx="4.37627" cy="5.2144" rx="4.37627" ry="5.2144" transform="matrix(-0.426203 -0.904632 0.904947 -0.425516 182.801 243.213)" fill="#FD2927"/>
<path d="M251.825 286.045C236.867 277.87 242.718 261.659 247.513 254.576C248.633 254.845 250.876 255.718 250.888 257.059C250.904 258.735 245.247 263.312 248.343 271.831C251.438 280.35 261.493 280.257 262.168 280.754C262.771 281.198 278.642 279.222 276.801 268.217C274.96 257.212 265.148 258.604 257.987 263.53C250.825 268.456 255.566 273.608 255.573 274.446C255.581 275.284 246.814 269.666 256.792 261.194C266.77 252.723 276.344 254.981 280.96 264.827C285.597 274.719 270.522 296.263 251.825 286.045Z" fill="#7FAF25"/>
<ellipse cx="177.795" cy="170.98" rx="23.5624" ry="23.0145" transform="rotate(120.464 177.795 170.98)" fill="#C50705"/>
<circle cx="178.268" cy="171.259" r="21.3706" transform="rotate(120.464 178.268 171.259)" fill="#FD2927"/>
<path d="M195.188 171.674C188.334 168.915 172.105 165.091 162.015 171.87" stroke="#B91513" stroke-width="1.09593"/>
<path d="M173.083 172.086C171.604 174.081 168.851 178.146 169.678 178.438C170.711 178.803 171.806 175.702 173.083 172.086Z" fill="#B30806"/>
<path d="M181.715 173.971C180.671 177.477 179.076 184.08 181.046 182.451C183.016 180.822 182.313 176.119 181.715 173.971Z" fill="#B30806"/>
<path d="M186.702 156.555L182.598 163.242C182.517 161.276 182.605 156.968 183.602 155.46C184.599 153.953 186.084 155.562 186.702 156.555Z" fill="#B30806"/>
<ellipse cx="292.797" cy="208.981" rx="23.5624" ry="23.0145" transform="rotate(120.464 292.797 208.981)" fill="#C50705"/>
<circle cx="293.268" cy="209.258" r="21.3706" transform="rotate(120.464 293.268 209.258)" fill="#FD2927"/>
<path d="M310.188 209.676C303.334 206.917 287.105 203.092 277.015 209.872" stroke="#B91513" stroke-width="1.09593"/>
<path d="M288.081 210.085C286.602 212.081 283.849 216.146 284.676 216.438C285.709 216.803 286.804 213.702 288.081 210.085Z" fill="#B30806"/>
<path d="M296.713 211.971C295.669 215.476 294.074 222.08 296.044 220.451C298.014 218.822 297.311 214.119 296.713 211.971Z" fill="#B30806"/>
<path d="M301.7 194.555L297.596 201.241C297.515 199.276 297.603 194.968 298.6 193.46C299.597 191.953 301.082 193.562 301.7 194.555Z" fill="#B30806"/>
<ellipse cx="235.642" cy="218.358" rx="11.8016" ry="7.33636" transform="rotate(153.875 235.642 218.358)" fill="#212D0B"/>
<ellipse cx="232.818" cy="211.231" rx="5.10758" ry="10.2931" transform="rotate(91.672 232.818 211.231)" fill="white"/>
<ellipse cx="239.361" cy="223.307" rx="5.10758" ry="10.2931" transform="rotate(-141.035 239.361 223.307)" fill="white"/>
<ellipse cx="240.984" cy="214.59" rx="9.43713" ry="5.60009" transform="rotate(152.051 240.984 214.59)" fill="#212D0B"/>
<ellipse cx="246.489" cy="211.623" rx="4.76333" ry="5.171" transform="rotate(113.184 246.489 211.623)" fill="white"/>
<ellipse cx="245.05" cy="207.624" rx="2.83759" ry="3.38103" transform="rotate(113.184 245.05 207.624)" fill="#C50705"/>
<ellipse cx="248.838" cy="214.725" rx="2.83759" ry="3.38103" transform="rotate(-159.807 248.838 214.725)" fill="#C50705"/>
<ellipse cx="168.374" cy="194.69" rx="11.8016" ry="7.33636" transform="rotate(-26.1603 168.374 194.69)" fill="#212D0B"/>
<ellipse cx="171.2" cy="201.816" rx="5.10758" ry="10.2931" transform="rotate(-88.3628 171.2 201.816)" fill="white"/>
<ellipse cx="164.652" cy="189.744" rx="5.10758" ry="10.2931" transform="rotate(38.9298 164.652 189.744)" fill="white"/>
<ellipse cx="163.032" cy="198.462" rx="9.43713" ry="5.60009" transform="rotate(-27.9841 163.032 198.462)" fill="#212D0B"/>
<ellipse cx="157.532" cy="201.431" rx="4.76333" ry="5.171" transform="rotate(-66.8508 157.532 201.431)" fill="white"/>
<ellipse cx="158.972" cy="205.43" rx="2.83759" ry="3.38103" transform="rotate(-66.8508 158.972 205.43)" fill="#C50705"/>
<ellipse cx="155.18" cy="198.331" rx="2.83759" ry="3.38103" transform="rotate(20.1579 155.18 198.331)" fill="#C50705"/>
<ellipse cx="208.92" cy="307.227" rx="11.8016" ry="7.33636" transform="rotate(-88.8965 208.92 307.227)" fill="#212D0B"/>
<ellipse cx="216.55" cy="307.978" rx="5.10758" ry="10.2931" transform="rotate(-151.099 216.55 307.978)" fill="white"/>
<ellipse cx="202.818" cy="308.269" rx="5.10758" ry="10.2931" transform="rotate(-23.8064 202.818 308.269)" fill="white"/>
<ellipse cx="209.827" cy="313.702" rx="9.43713" ry="5.60009" transform="rotate(-90.7203 209.827 313.702)" fill="#212D0B"/>
<ellipse cx="209.946" cy="319.953" rx="4.76333" ry="5.171" transform="rotate(-129.587 209.946 319.953)" fill="white"/>
<ellipse cx="214.161" cy="320.504" rx="2.83759" ry="3.38103" transform="rotate(-129.587 214.161 320.504)" fill="#C50705"/>
<ellipse cx="206.113" cy="320.622" rx="2.83758" ry="3.38103" transform="rotate(-42.5784 206.113 320.622)" fill="#C50705"/>
</svg>
