<svg width="453" height="454" viewBox="0 0 453 454" fill="none" xmlns="http://www.w3.org/2000/svg">
<path d="M166.104 5.84772L192.325 48.2492L176.709 54.561L166.104 5.84772Z" fill="white"/>
<path d="M297.564 15.9126L291.48 60.537L270.01 51.5373L297.564 15.9126Z" fill="white"/>
<path d="M255.908 11.992L268.512 54.4072L252.471 56.1065L255.908 11.992Z" fill="white"/>
<path d="M203.789 5.38534L216.393 47.8005L200.351 49.4998L203.789 5.38534Z" fill="white"/>
<path d="M238.661 42.9919L223.88 43.9614L228.655 3.61017L238.661 42.9919Z" fill="black" stroke="#737373" stroke-width="1.09593"/>
<path d="M78.444 68.9266L117.433 91.4696L100.967 107.927L78.444 68.9266Z" fill="white"/>
<path d="M141.171 71.77L124.349 85.7174L106.695 47.3058L141.171 71.77Z" fill="black" stroke="#737373" stroke-width="1.09593"/>
<path d="M139.411 29.1475L168.283 63.7128L147.165 73.512L139.411 29.1475Z" fill="white"/>
<path d="M328.24 31.2856L319.064 75.3779L298.272 64.905L328.24 31.2856Z" fill="white"/>
<path d="M357.483 50.3477L341.451 92.4347L322.577 78.8063L357.483 50.3477Z" fill="white"/>
<path d="M415.405 132.039L380.76 160.815L371.019 139.671L415.405 132.039Z" fill="white"/>
<path d="M451.717 241.612L398.799 249.303L399.408 230.51L451.717 241.612Z" fill="white"/>
<path d="M398.654 188.346L394.344 166.923L436.535 169.579L398.654 188.346Z" fill="black" stroke="#737373" stroke-width="1.09593"/>
<path d="M352.84 108.714L342.181 94.9591L385.358 72.5058L352.84 108.714Z" fill="black" stroke="#737373" stroke-width="1.09593"/>
<path d="M405.834 101.343L373.829 131.898L365.003 118.395L405.834 101.343Z" fill="white"/>
<path d="M451.139 203.984L408.225 214.771L407.21 198.672L451.139 203.984Z" fill="white"/>
<path d="M449.141 272.816L404.9 272.005L408.13 256.201L449.141 272.816Z" fill="white"/>
<path d="M396.521 294.206L402.31 280.571L436.19 303.002L396.521 294.206Z" fill="black" stroke="#737373" stroke-width="1.09593"/>
<path d="M439.901 343.024L388.43 323.595L396.278 309.502L439.901 343.024Z" fill="white"/>
<path d="M404.091 354.185L363.827 335.836L373.08 322.622L404.091 354.185Z" fill="white"/>
<path d="M393.846 382.971L357.749 357.667L367.671 347.501L393.846 382.971Z" fill="white"/>
<path d="M56.0589 92.0243L97.2387 110.261L82.6308 128.387L56.0589 92.0243Z" fill="white"/>
<path d="M73.1453 139.273L63.6834 154.491L23.5722 119.002L73.1453 139.273Z" fill="black" stroke="#737373" stroke-width="1.09593"/>
<path d="M22.5013 171.392L66.4123 178.487L59.722 195.747L22.5013 171.392Z" fill="white"/>
<path d="M14.308 206.546L58.1714 201.466L57.3199 216.536L14.308 206.546Z" fill="white"/>
<path d="M7.19032 236.792L50.8474 228.209L50.5347 246.835L7.19032 236.792Z" fill="white"/>
<path d="M19.8276 271.654L57.0702 247.027L64.094 265.823L19.8276 271.654Z" fill="white"/>
<path d="M52.1071 288.031L57.3364 302.025L6.82378 312.926L52.1071 288.031Z" fill="black" stroke="#737373" stroke-width="1.09593"/>
<path d="M39.399 334.342L73.9164 306.021L82.8328 323.997L39.399 334.342Z" fill="white"/>
<path d="M64.2319 363.686L93.4211 329.9L105.269 346.094L64.2319 363.686Z" fill="white"/>
<path d="M106.116 359.72L121.085 370.911L89.3378 397.769L106.116 359.72Z" fill="black" stroke="#737373" stroke-width="1.09593"/>
<path d="M115.699 420.692L130.305 378.5L147.307 389.157L115.699 420.692Z" fill="white"/>
<path d="M146.819 435.143L156.067 391.462L174.262 399.923L146.819 435.143Z" fill="white"/>
<path d="M172.223 444.761L176.521 400.319L195.549 406.689L172.223 444.761Z" fill="white"/>
<path d="M200.3 408.643L218.9 410.471L205.637 449.883L200.3 408.643Z" fill="black" stroke="#737373" stroke-width="1.09593"/>
<path d="M237.776 451.98L225.805 408.966L245.851 408.067L237.776 451.98Z" fill="white"/>
<path d="M273.379 450.799L254.853 410.175L274.514 406.165L273.379 450.799Z" fill="white"/>
<path d="M308.711 439.56L285.743 401.271L304.83 395.08L308.711 439.56Z" fill="white"/>
<path d="M347.231 422.002L313.576 392.662L329.824 380.887L347.231 422.002Z" fill="white"/>
<path d="M329.26 369.066L347.678 352.672L374.013 400.802L329.26 369.066Z" fill="black" stroke="#737373" stroke-width="1.09593"/>
<path d="M162.173 320.47C165.421 328.817 175.178 342.077 188.221 328.338C201.264 314.599 212.848 325.831 217.01 333.165C222.2 339.752 235.633 347.655 247.846 326.567C260.059 305.479 273.589 318.556 278.828 327.73" stroke="#A30200" stroke-width="7.93715"/>
<path d="M177.278 155.016C178.059 160.416 182.429 169.094 193.662 160.598C204.894 152.101 210.856 159.523 212.432 164.296C214.837 168.614 222.628 173.949 234.554 160.741C246.48 147.533 253.45 156.175 255.445 162.146" stroke="#A30200" stroke-width="7.93714"/>
<ellipse cx="228.645" cy="230.185" rx="187.184" ry="192.476" transform="rotate(-0.415182 228.645 230.185)" fill="#C50705"/>
<ellipse cx="228.648" cy="230.183" rx="171.31" ry="175.279" transform="rotate(-0.415182 228.648 230.183)" fill="black"/>
<ellipse cx="226.374" cy="232.379" rx="16.0277" ry="9.96348" transform="rotate(79.6774 226.374 232.379)" fill="#7FAF25"/>
<ellipse cx="216.016" cy="233.431" rx="6.93658" ry="13.979" transform="rotate(17.4748 216.016 233.431)" fill="white"/>
<ellipse cx="234.217" cy="229.35" rx="6.93659" ry="13.979" transform="rotate(144.767 234.217 229.35)" fill="white"/>
<ellipse cx="223.426" cy="224.003" rx="12.8165" ry="7.60546" transform="rotate(77.8536 223.426 224.003)" fill="#7FAF25"/>
<ellipse cx="221.583" cy="215.715" rx="6.46906" ry="7.02271" transform="rotate(38.9868 221.583 215.715)" fill="white"/>
<ellipse cx="215.825" cy="216.115" rx="3.85371" ry="4.59177" transform="rotate(38.9868 215.825 216.115)" fill="#C50705"/>
<ellipse cx="226.508" cy="213.792" rx="3.85371" ry="4.59176" transform="rotate(125.996 226.508 213.792)" fill="#C50705"/>
<path d="M293.857 202.727C294.469 201.985 295.78 201.726 296.299 200.968C297.316 199.475 296.433 196.726 296.558 195.09C296.777 192.265 301.946 194.018 302.707 197.056C303.261 199.262 298.398 201.061 301.451 204.556C305.164 208.808 307.008 203.849 309.676 204.715C310.852 205.094 311.859 206.382 312.168 207.274C313.598 211.415 306.193 209.678 304.171 211.552C300.763 216.404 297.969 221.224 296.358 227.109C295.411 230.569 294.977 238.105 293.152 240.634C291.328 243.162 285.985 240.087 282.609 238.377C273.416 233.717 268.002 230.882 258.448 227.073C254.261 225.404 252.762 223.447 253.172 227.674C253.805 234.191 254.981 239.411 254.538 245.818C254.347 248.56 253.197 252.058 253.394 254.744C253.504 256.266 254.263 258.039 254.354 259.784C254.417 261.014 253.656 267.428 253.915 267.886C254.085 268.187 254.421 268.468 254.682 268.743C255.715 269.082 261.217 262.498 262.418 261.662C266.058 259.138 271.316 261.729 272.701 266.704C273.576 269.843 271.065 276.048 270.446 279.132C269.213 285.231 266.914 297.441 269.485 304.421C270.191 306.335 273.881 311.991 268.966 310.593C265.437 309.59 266.384 306.033 265.396 303.988C262.959 298.957 259.087 301.018 257.937 303.356C257.577 304.089 258.065 305.045 257.108 305.456C254.64 306.519 250.843 302.9 252.523 301.616C252.995 301.254 253.942 301.464 254.615 301.241C256.264 300.694 258.169 298.665 259.064 297.403C261.092 294.541 258.261 294.129 255.456 295.025C253.85 295.539 252.178 297.706 249.66 294.937C245.85 290.75 254.462 292.667 256.017 292.191C256.563 292.022 258.28 290.958 258.671 290.615C259.979 289.468 259.872 286.697 259.787 284.836C259.33 284.22 259.228 284.587 258.865 284.713C257.761 285.099 256.495 285.487 255.452 285.89C253.495 286.647 248.907 289.531 246.351 288.786C239.636 286.833 242.099 280.359 242.085 277.421C242.072 275.001 241.967 272.073 241.68 269.578C241.511 268.119 240.872 262.461 239.425 261.384C236.915 260.122 235.307 261.778 233.672 262.279C229.094 263.682 224.347 265.074 218.53 264.59C216.078 264.387 209.148 262.171 211.169 265.605C213.291 269.211 216.884 273.11 219.17 276.579C224.615 284.849 207.934 282.66 209.934 289.404C210.308 290.667 212.17 295.019 212.895 296.312C213.95 298.19 218.283 303.032 214.984 303.406C211.508 303.798 210.641 299.725 209.246 297.95C207.298 295.469 204.672 293.263 201.757 293.782C198.636 294.338 199.861 297.347 198.243 298.088C196.625 298.83 193.142 296.629 193.511 295.023C193.718 294.111 195.95 292.762 196.644 291.642C197.148 290.825 197.986 288.667 197.388 287.499C195.804 284.42 193.724 285.493 191.368 285.025C188.378 284.43 185.845 282.014 188.146 280.847C190.542 279.634 195.479 283.577 198.544 281.205C200.621 279.597 195.338 275.842 196.633 274.803C198.421 273.367 199.698 276.458 200.696 277.528C201.694 278.597 204.805 280.486 205.929 280.08C206.758 279.778 210.137 275.454 210.613 274.547C210.809 274.173 211.111 273.576 210.86 273.049C210.376 272.029 205.13 266.966 203.796 265.893C202.897 265.168 202.356 265.225 201.702 265.542C200.206 266.257 198.375 268.121 197.024 269.149C196.561 269.503 195.76 269.624 195.258 269.987C193.642 271.162 193.933 273.142 190.523 273.114C187.583 273.09 185.835 270.776 183.413 269.703C181.574 268.889 178.222 268.525 176.153 267.915C169.787 266.033 166.757 263.709 165.955 258.512C165.706 256.893 166.483 252.413 166.061 251.533C165.577 250.528 163.754 248.926 163.076 247.423C160.949 242.71 168.931 243.622 172.102 242.916C174.217 242.447 175.816 241.353 177.771 240.728C182.312 239.281 186.064 240.411 188.305 236.204C189.493 233.97 188.51 232.758 186.411 229.988C185.206 228.4 183.29 225.841 182.015 224.377C181.524 223.813 180.745 222.91 180.08 222.527C176.342 221.46 178.445 225.239 176.578 225.974C174.384 226.84 171.218 223.257 172.999 222.226C173.36 222.017 173.972 222.121 174.391 221.777C174.932 221.333 175.305 219.073 174.88 218.227C174.213 216.897 169.402 214.539 167.853 214.097C165.206 213.338 163.434 214.401 161.605 213.988C158.606 213.31 156.52 208.964 161.395 209.889C163.113 210.214 173.392 214.354 169.73 209.928C167.263 206.946 164.217 203.798 161.177 201.085C160.435 200.423 159.537 200.078 158.768 199.25C156.077 196.352 159.294 195.057 162.34 196.797C165.972 198.872 166.78 204.132 171.777 204.957C177.147 205.842 175.641 202.695 176.912 200.477C177.999 198.584 182.252 199.727 183.174 202.484C183.679 203.993 182.186 204.138 181.573 204.95C179.838 207.244 178.749 211.217 180.86 214.891C182.207 217.231 185.536 218.521 187.593 220.373C189.651 222.225 191.307 224.549 193.231 226.579C194.692 228.122 196.566 229.179 197.611 231.117C198.921 233.544 195.458 232.522 194.986 233.785C194.919 233.968 195.877 238.146 196.132 238.343C198.015 238.754 199.54 238.113 201.213 238.043C205.576 237.859 210.784 238.916 215.652 240.073C222.072 241.599 228.259 244.066 234.717 246.661C236.786 246.743 238.037 243.309 238.418 241.888C239.3 238.6 239.249 234.429 239.744 230.916C240.062 228.674 240.917 226.631 241.171 224.36C241.483 221.555 239.941 215.809 243.762 215.555C248.673 215.226 260.555 220.21 266.105 222.858C270.416 224.915 283.471 232.742 286.696 231.888C288.444 231.426 287.835 227.969 288.113 226.573C288.522 224.526 291.807 221.313 290.628 218.786C288.99 215.27 284.569 218.395 282.995 218.551C281.212 218.726 277.995 215.707 279.523 214.528C280.771 213.565 284.972 214.242 286.02 212.225C287.452 209.464 278.722 206.369 277.005 204.704C275.287 203.04 276.193 200.938 278.918 202.059C281.03 202.927 282.501 205.696 285.65 207.098C289.494 208.809 290 205.799 289.636 203.562C289.316 201.599 285.699 195.392 290.702 197.411C294.234 198.838 291.884 200.909 293.866 202.719L293.857 202.727Z" fill="#B0DA3E"/>
<ellipse cx="6.46827" cy="7.70705" rx="6.46827" ry="7.70705" transform="matrix(0.532697 -0.846311 0.845902 0.533331 176.828 272.809)" fill="#FD2927"/>
<ellipse cx="2.70172" cy="3.21915" rx="2.70172" ry="3.21915" transform="matrix(0.532697 -0.846311 0.845902 0.533331 210.266 303.921)" fill="white"/>
<ellipse cx="2.70172" cy="3.21915" rx="2.70172" ry="3.21915" transform="matrix(0.532697 -0.846311 0.845902 0.533331 191.293 298.264)" fill="white"/>
<ellipse cx="2.70172" cy="3.21915" rx="2.70172" ry="3.21915" transform="matrix(0.532697 -0.846311 0.845902 0.533331 184.709 283.311)" fill="white"/>
<ellipse cx="2.70172" cy="3.21915" rx="2.70172" ry="3.21915" transform="matrix(0.532697 -0.846311 0.845902 0.533331 193.617 276.091)" fill="white"/>
<ellipse cx="2.70172" cy="3.21915" rx="2.70172" ry="3.21915" transform="matrix(0.532697 -0.846311 0.845902 0.533331 245.797 295.421)" fill="white"/>
<ellipse cx="2.70172" cy="3.21915" rx="2.70172" ry="3.21915" transform="matrix(0.532697 -0.846311 0.845902 0.533331 251 304.117)" fill="white"/>
<ellipse cx="2.70172" cy="3.21915" rx="2.70172" ry="3.21915" transform="matrix(0.532697 -0.846311 0.845902 0.533331 265.451 310.114)" fill="white"/>
<ellipse cx="2.70172" cy="3.21915" rx="2.70172" ry="3.21915" transform="matrix(0.532697 -0.846311 0.845902 0.533331 170.463 224.761)" fill="white"/>
<ellipse cx="2.70172" cy="3.21915" rx="2.70172" ry="3.21915" transform="matrix(0.532697 -0.846311 0.845902 0.533331 155.885 212.228)" fill="white"/>
<ellipse cx="2.70172" cy="3.21915" rx="2.70172" ry="3.21915" transform="matrix(0.532697 -0.846311 0.845902 0.533331 156.111 198.395)" fill="white"/>
<ellipse cx="2.70172" cy="3.21915" rx="2.70172" ry="3.21915" transform="matrix(0.532697 -0.846311 0.845902 0.533331 176.057 202.521)" fill="white"/>
<ellipse cx="2.70172" cy="3.21915" rx="2.70172" ry="3.21915" transform="matrix(0.532697 -0.846311 0.845902 0.533331 307.156 207.699)" fill="white"/>
<ellipse cx="2.70172" cy="3.21915" rx="2.70172" ry="3.21915" transform="matrix(0.532697 -0.846311 0.845902 0.533331 295.357 195.866)" fill="white"/>
<ellipse cx="2.70172" cy="3.21915" rx="2.70172" ry="3.21915" transform="matrix(0.532697 -0.846311 0.845902 0.533331 285.344 198.075)" fill="white"/>
<ellipse cx="2.70172" cy="3.21915" rx="2.70172" ry="3.21915" transform="matrix(0.532697 -0.846311 0.845902 0.533331 276.422 217.111)" fill="white"/>
<ellipse cx="6.9691" cy="8.3038" rx="6.9691" ry="8.3038" transform="matrix(0.86852 0.495579 -0.494963 0.868956 165.566 234.087)" fill="#FD2927"/>
<ellipse cx="2.70172" cy="3.21915" rx="2.70172" ry="3.21915" transform="matrix(0.532697 -0.846311 0.845902 0.533331 272.893 204.106)" fill="white"/>
<path d="M186.112 312.549L189.16 206.962C197.28 188.146 214.937 182.771 220.608 311.799C235.639 336.903 243.56 345.114 247.677 206.613C253.077 183.335 277.06 177.23 282.616 317.531" stroke="#E6BC2F" stroke-width="5.47963"/>
<ellipse cx="206.728" cy="159.576" rx="23.5624" ry="23.0145" transform="rotate(120.464 206.728 159.576)" fill="#C50705"/>
<circle cx="207.202" cy="159.855" r="21.3706" transform="rotate(120.464 207.202 159.855)" fill="#FD2927"/>
<path d="M224.121 160.271C217.268 157.512 201.039 153.688 190.948 160.467" stroke="#B91513" stroke-width="1.09593"/>
<path d="M202.013 160.681C200.533 162.677 197.781 166.741 198.608 167.033C199.641 167.398 200.736 164.298 202.013 160.681Z" fill="#B30806"/>
<path d="M210.645 162.566C209.601 166.072 208.006 172.676 209.975 171.047C211.945 169.418 211.243 164.714 210.645 162.566Z" fill="#B30806"/>
<path d="M215.632 145.15L211.528 151.837C211.447 149.871 211.534 145.563 212.532 144.056C213.529 142.548 215.014 144.157 215.632 145.15Z" fill="#B30806"/>
<ellipse cx="262.473" cy="162.986" rx="23.5624" ry="23.0145" transform="rotate(120.464 262.473 162.986)" fill="#C50705"/>
<circle cx="262.942" cy="163.264" r="21.3706" transform="rotate(120.464 262.942 163.264)" fill="#FD2927"/>
<path d="M279.865 163.682C273.012 160.922 256.783 157.098 246.693 163.877" stroke="#B91513" stroke-width="1.09593"/>
<path d="M257.757 164.092C256.277 166.088 253.525 170.153 254.352 170.445C255.385 170.81 256.48 167.709 257.757 164.092Z" fill="#B30806"/>
<path d="M266.389 165.978C265.345 169.484 263.75 176.087 265.72 174.458C267.689 172.829 266.987 168.126 266.389 165.978Z" fill="#B30806"/>
<path d="M271.376 148.562L267.272 155.249C267.191 153.283 267.279 148.975 268.276 147.467C269.273 145.96 270.758 147.569 271.376 148.562Z" fill="#B30806"/>
</svg>
